M48
; DRILL file KiCad 10.0.3 date 2026-06-07T12:23:41
; FORMAT={-:-/ absolute / metric / decimal}
; #@! TF.CreationDate,2026-06-07T12:23:41-04:00
; #@! TF.GenerationSoftware,Kicad,Pcbnew,10.0.3
; #@! TF.FileFunction,NonPlated,1,2,NPTH
FMAT,2
METRIC
; #@! TA.AperFunction,NonPlated,NPTH,ComponentDrill
T1C1.700
; #@! TA.AperFunction,NonPlated,NPTH,ComponentDrill
T2C4.000
%
G90
G05
T1
X52.07Y-44.9
X52.07Y-76.2
X52.07Y-114.3
X62.23Y-44.9
X62.23Y-76.2
X62.23Y-114.3
X71.12Y-44.9
X71.12Y-76.2
X71.12Y-114.3
X81.28Y-44.9
X81.28Y-76.2
X81.28Y-114.3
X90.17Y-44.9
X90.17Y-76.2
X90.17Y-114.3
X100.33Y-44.9
X100.33Y-76.2
X100.33Y-114.3
X109.22Y-44.9
X109.22Y-76.2
X119.38Y-44.9
X119.38Y-76.2
T2
X57.15Y-44.9
X57.15Y-76.2
X57.15Y-114.3
X76.2Y-44.9
X76.2Y-76.2
X76.2Y-114.3
X95.25Y-44.9
X95.25Y-76.2
X95.25Y-114.3
X114.3Y-44.9
X114.3Y-76.2
M30
