%TF.GenerationSoftware,KiCad,Pcbnew,10.0.3*%
%TF.CreationDate,2026-06-07T12:23:16-04:00*%
%TF.ProjectId,Hackpad,4861636b-7061-4642-9e6b-696361645f70,rev?*%
%TF.SameCoordinates,Original*%
%TF.FileFunction,Legend,Top*%
%TF.FilePolarity,Positive*%
%FSLAX46Y46*%
G04 Gerber Fmt 4.6, Leading zero omitted, Abs format (unit mm)*
G04 Created by KiCad (PCBNEW 10.0.3) date 2026-06-07 12:23:16*
%MOMM*%
%LPD*%
G01*
G04 APERTURE LIST*
%ADD10C,0.150000*%
%ADD11C,0.120000*%
G04 APERTURE END LIST*
D10*
X126666666Y-106764819D02*
X126666666Y-107479104D01*
X126666666Y-107479104D02*
X126619047Y-107621961D01*
X126619047Y-107621961D02*
X126523809Y-107717200D01*
X126523809Y-107717200D02*
X126380952Y-107764819D01*
X126380952Y-107764819D02*
X126285714Y-107764819D01*
X127666666Y-107764819D02*
X127095238Y-107764819D01*
X127380952Y-107764819D02*
X127380952Y-106764819D01*
X127380952Y-106764819D02*
X127285714Y-106907676D01*
X127285714Y-106907676D02*
X127190476Y-107002914D01*
X127190476Y-107002914D02*
X127095238Y-107050533D01*
X55816667Y-106833200D02*
X55959524Y-106880819D01*
X55959524Y-106880819D02*
X56197619Y-106880819D01*
X56197619Y-106880819D02*
X56292857Y-106833200D01*
X56292857Y-106833200D02*
X56340476Y-106785580D01*
X56340476Y-106785580D02*
X56388095Y-106690342D01*
X56388095Y-106690342D02*
X56388095Y-106595104D01*
X56388095Y-106595104D02*
X56340476Y-106499866D01*
X56340476Y-106499866D02*
X56292857Y-106452247D01*
X56292857Y-106452247D02*
X56197619Y-106404628D01*
X56197619Y-106404628D02*
X56007143Y-106357009D01*
X56007143Y-106357009D02*
X55911905Y-106309390D01*
X55911905Y-106309390D02*
X55864286Y-106261771D01*
X55864286Y-106261771D02*
X55816667Y-106166533D01*
X55816667Y-106166533D02*
X55816667Y-106071295D01*
X55816667Y-106071295D02*
X55864286Y-105976057D01*
X55864286Y-105976057D02*
X55911905Y-105928438D01*
X55911905Y-105928438D02*
X56007143Y-105880819D01*
X56007143Y-105880819D02*
X56245238Y-105880819D01*
X56245238Y-105880819D02*
X56388095Y-105928438D01*
X56721429Y-105880819D02*
X56959524Y-106880819D01*
X56959524Y-106880819D02*
X57150000Y-106166533D01*
X57150000Y-106166533D02*
X57340476Y-106880819D01*
X57340476Y-106880819D02*
X57578572Y-105880819D01*
X58388095Y-105880819D02*
X58197619Y-105880819D01*
X58197619Y-105880819D02*
X58102381Y-105928438D01*
X58102381Y-105928438D02*
X58054762Y-105976057D01*
X58054762Y-105976057D02*
X57959524Y-106118914D01*
X57959524Y-106118914D02*
X57911905Y-106309390D01*
X57911905Y-106309390D02*
X57911905Y-106690342D01*
X57911905Y-106690342D02*
X57959524Y-106785580D01*
X57959524Y-106785580D02*
X58007143Y-106833200D01*
X58007143Y-106833200D02*
X58102381Y-106880819D01*
X58102381Y-106880819D02*
X58292857Y-106880819D01*
X58292857Y-106880819D02*
X58388095Y-106833200D01*
X58388095Y-106833200D02*
X58435714Y-106785580D01*
X58435714Y-106785580D02*
X58483333Y-106690342D01*
X58483333Y-106690342D02*
X58483333Y-106452247D01*
X58483333Y-106452247D02*
X58435714Y-106357009D01*
X58435714Y-106357009D02*
X58388095Y-106309390D01*
X58388095Y-106309390D02*
X58292857Y-106261771D01*
X58292857Y-106261771D02*
X58102381Y-106261771D01*
X58102381Y-106261771D02*
X58007143Y-106309390D01*
X58007143Y-106309390D02*
X57959524Y-106357009D01*
X57959524Y-106357009D02*
X57911905Y-106452247D01*
X56261905Y-55484819D02*
X56261905Y-54484819D01*
X56261905Y-54484819D02*
X56500000Y-54484819D01*
X56500000Y-54484819D02*
X56642857Y-54532438D01*
X56642857Y-54532438D02*
X56738095Y-54627676D01*
X56738095Y-54627676D02*
X56785714Y-54722914D01*
X56785714Y-54722914D02*
X56833333Y-54913390D01*
X56833333Y-54913390D02*
X56833333Y-55056247D01*
X56833333Y-55056247D02*
X56785714Y-55246723D01*
X56785714Y-55246723D02*
X56738095Y-55341961D01*
X56738095Y-55341961D02*
X56642857Y-55437200D01*
X56642857Y-55437200D02*
X56500000Y-55484819D01*
X56500000Y-55484819D02*
X56261905Y-55484819D01*
X57785714Y-55484819D02*
X57214286Y-55484819D01*
X57500000Y-55484819D02*
X57500000Y-54484819D01*
X57500000Y-54484819D02*
X57404762Y-54627676D01*
X57404762Y-54627676D02*
X57309524Y-54722914D01*
X57309524Y-54722914D02*
X57214286Y-54770533D01*
X52928095Y-55804819D02*
X52928095Y-54804819D01*
X53499523Y-55804819D02*
X53070952Y-55233390D01*
X53499523Y-54804819D02*
X52928095Y-55376247D01*
X74261905Y-88334819D02*
X74261905Y-87334819D01*
X74261905Y-87334819D02*
X74500000Y-87334819D01*
X74500000Y-87334819D02*
X74642857Y-87382438D01*
X74642857Y-87382438D02*
X74738095Y-87477676D01*
X74738095Y-87477676D02*
X74785714Y-87572914D01*
X74785714Y-87572914D02*
X74833333Y-87763390D01*
X74833333Y-87763390D02*
X74833333Y-87906247D01*
X74833333Y-87906247D02*
X74785714Y-88096723D01*
X74785714Y-88096723D02*
X74738095Y-88191961D01*
X74738095Y-88191961D02*
X74642857Y-88287200D01*
X74642857Y-88287200D02*
X74500000Y-88334819D01*
X74500000Y-88334819D02*
X74261905Y-88334819D01*
X75690476Y-87334819D02*
X75500000Y-87334819D01*
X75500000Y-87334819D02*
X75404762Y-87382438D01*
X75404762Y-87382438D02*
X75357143Y-87430057D01*
X75357143Y-87430057D02*
X75261905Y-87572914D01*
X75261905Y-87572914D02*
X75214286Y-87763390D01*
X75214286Y-87763390D02*
X75214286Y-88144342D01*
X75214286Y-88144342D02*
X75261905Y-88239580D01*
X75261905Y-88239580D02*
X75309524Y-88287200D01*
X75309524Y-88287200D02*
X75404762Y-88334819D01*
X75404762Y-88334819D02*
X75595238Y-88334819D01*
X75595238Y-88334819D02*
X75690476Y-88287200D01*
X75690476Y-88287200D02*
X75738095Y-88239580D01*
X75738095Y-88239580D02*
X75785714Y-88144342D01*
X75785714Y-88144342D02*
X75785714Y-87906247D01*
X75785714Y-87906247D02*
X75738095Y-87811009D01*
X75738095Y-87811009D02*
X75690476Y-87763390D01*
X75690476Y-87763390D02*
X75595238Y-87715771D01*
X75595238Y-87715771D02*
X75404762Y-87715771D01*
X75404762Y-87715771D02*
X75309524Y-87763390D01*
X75309524Y-87763390D02*
X75261905Y-87811009D01*
X75261905Y-87811009D02*
X75214286Y-87906247D01*
X70928095Y-88654819D02*
X70928095Y-87654819D01*
X71499523Y-88654819D02*
X71070952Y-88083390D01*
X71499523Y-87654819D02*
X70928095Y-88226247D01*
X79271905Y-55484819D02*
X79271905Y-54484819D01*
X79271905Y-54484819D02*
X79510000Y-54484819D01*
X79510000Y-54484819D02*
X79652857Y-54532438D01*
X79652857Y-54532438D02*
X79748095Y-54627676D01*
X79748095Y-54627676D02*
X79795714Y-54722914D01*
X79795714Y-54722914D02*
X79843333Y-54913390D01*
X79843333Y-54913390D02*
X79843333Y-55056247D01*
X79843333Y-55056247D02*
X79795714Y-55246723D01*
X79795714Y-55246723D02*
X79748095Y-55341961D01*
X79748095Y-55341961D02*
X79652857Y-55437200D01*
X79652857Y-55437200D02*
X79510000Y-55484819D01*
X79510000Y-55484819D02*
X79271905Y-55484819D01*
X80224286Y-54580057D02*
X80271905Y-54532438D01*
X80271905Y-54532438D02*
X80367143Y-54484819D01*
X80367143Y-54484819D02*
X80605238Y-54484819D01*
X80605238Y-54484819D02*
X80700476Y-54532438D01*
X80700476Y-54532438D02*
X80748095Y-54580057D01*
X80748095Y-54580057D02*
X80795714Y-54675295D01*
X80795714Y-54675295D02*
X80795714Y-54770533D01*
X80795714Y-54770533D02*
X80748095Y-54913390D01*
X80748095Y-54913390D02*
X80176667Y-55484819D01*
X80176667Y-55484819D02*
X80795714Y-55484819D01*
X75938095Y-55804819D02*
X75938095Y-54804819D01*
X76509523Y-55804819D02*
X76080952Y-55233390D01*
X76509523Y-54804819D02*
X75938095Y-55376247D01*
X94261905Y-55834819D02*
X94261905Y-54834819D01*
X94261905Y-54834819D02*
X94500000Y-54834819D01*
X94500000Y-54834819D02*
X94642857Y-54882438D01*
X94642857Y-54882438D02*
X94738095Y-54977676D01*
X94738095Y-54977676D02*
X94785714Y-55072914D01*
X94785714Y-55072914D02*
X94833333Y-55263390D01*
X94833333Y-55263390D02*
X94833333Y-55406247D01*
X94833333Y-55406247D02*
X94785714Y-55596723D01*
X94785714Y-55596723D02*
X94738095Y-55691961D01*
X94738095Y-55691961D02*
X94642857Y-55787200D01*
X94642857Y-55787200D02*
X94500000Y-55834819D01*
X94500000Y-55834819D02*
X94261905Y-55834819D01*
X95166667Y-54834819D02*
X95785714Y-54834819D01*
X95785714Y-54834819D02*
X95452381Y-55215771D01*
X95452381Y-55215771D02*
X95595238Y-55215771D01*
X95595238Y-55215771D02*
X95690476Y-55263390D01*
X95690476Y-55263390D02*
X95738095Y-55311009D01*
X95738095Y-55311009D02*
X95785714Y-55406247D01*
X95785714Y-55406247D02*
X95785714Y-55644342D01*
X95785714Y-55644342D02*
X95738095Y-55739580D01*
X95738095Y-55739580D02*
X95690476Y-55787200D01*
X95690476Y-55787200D02*
X95595238Y-55834819D01*
X95595238Y-55834819D02*
X95309524Y-55834819D01*
X95309524Y-55834819D02*
X95214286Y-55787200D01*
X95214286Y-55787200D02*
X95166667Y-55739580D01*
X90928095Y-56154819D02*
X90928095Y-55154819D01*
X91499523Y-56154819D02*
X91070952Y-55583390D01*
X91499523Y-55154819D02*
X90928095Y-55726247D01*
X114261905Y-55834819D02*
X114261905Y-54834819D01*
X114261905Y-54834819D02*
X114500000Y-54834819D01*
X114500000Y-54834819D02*
X114642857Y-54882438D01*
X114642857Y-54882438D02*
X114738095Y-54977676D01*
X114738095Y-54977676D02*
X114785714Y-55072914D01*
X114785714Y-55072914D02*
X114833333Y-55263390D01*
X114833333Y-55263390D02*
X114833333Y-55406247D01*
X114833333Y-55406247D02*
X114785714Y-55596723D01*
X114785714Y-55596723D02*
X114738095Y-55691961D01*
X114738095Y-55691961D02*
X114642857Y-55787200D01*
X114642857Y-55787200D02*
X114500000Y-55834819D01*
X114500000Y-55834819D02*
X114261905Y-55834819D01*
X115690476Y-55168152D02*
X115690476Y-55834819D01*
X115452381Y-54787200D02*
X115214286Y-55501485D01*
X115214286Y-55501485D02*
X115833333Y-55501485D01*
X110928095Y-56154819D02*
X110928095Y-55154819D01*
X111499523Y-56154819D02*
X111070952Y-55583390D01*
X111499523Y-55154819D02*
X110928095Y-55726247D01*
X56761905Y-88334819D02*
X56761905Y-87334819D01*
X56761905Y-87334819D02*
X57000000Y-87334819D01*
X57000000Y-87334819D02*
X57142857Y-87382438D01*
X57142857Y-87382438D02*
X57238095Y-87477676D01*
X57238095Y-87477676D02*
X57285714Y-87572914D01*
X57285714Y-87572914D02*
X57333333Y-87763390D01*
X57333333Y-87763390D02*
X57333333Y-87906247D01*
X57333333Y-87906247D02*
X57285714Y-88096723D01*
X57285714Y-88096723D02*
X57238095Y-88191961D01*
X57238095Y-88191961D02*
X57142857Y-88287200D01*
X57142857Y-88287200D02*
X57000000Y-88334819D01*
X57000000Y-88334819D02*
X56761905Y-88334819D01*
X58238095Y-87334819D02*
X57761905Y-87334819D01*
X57761905Y-87334819D02*
X57714286Y-87811009D01*
X57714286Y-87811009D02*
X57761905Y-87763390D01*
X57761905Y-87763390D02*
X57857143Y-87715771D01*
X57857143Y-87715771D02*
X58095238Y-87715771D01*
X58095238Y-87715771D02*
X58190476Y-87763390D01*
X58190476Y-87763390D02*
X58238095Y-87811009D01*
X58238095Y-87811009D02*
X58285714Y-87906247D01*
X58285714Y-87906247D02*
X58285714Y-88144342D01*
X58285714Y-88144342D02*
X58238095Y-88239580D01*
X58238095Y-88239580D02*
X58190476Y-88287200D01*
X58190476Y-88287200D02*
X58095238Y-88334819D01*
X58095238Y-88334819D02*
X57857143Y-88334819D01*
X57857143Y-88334819D02*
X57761905Y-88287200D01*
X57761905Y-88287200D02*
X57714286Y-88239580D01*
X53428095Y-88654819D02*
X53428095Y-87654819D01*
X53999523Y-88654819D02*
X53570952Y-88083390D01*
X53999523Y-87654819D02*
X53428095Y-88226247D01*
X114261905Y-88334819D02*
X114261905Y-87334819D01*
X114261905Y-87334819D02*
X114500000Y-87334819D01*
X114500000Y-87334819D02*
X114642857Y-87382438D01*
X114642857Y-87382438D02*
X114738095Y-87477676D01*
X114738095Y-87477676D02*
X114785714Y-87572914D01*
X114785714Y-87572914D02*
X114833333Y-87763390D01*
X114833333Y-87763390D02*
X114833333Y-87906247D01*
X114833333Y-87906247D02*
X114785714Y-88096723D01*
X114785714Y-88096723D02*
X114738095Y-88191961D01*
X114738095Y-88191961D02*
X114642857Y-88287200D01*
X114642857Y-88287200D02*
X114500000Y-88334819D01*
X114500000Y-88334819D02*
X114261905Y-88334819D01*
X115404762Y-87763390D02*
X115309524Y-87715771D01*
X115309524Y-87715771D02*
X115261905Y-87668152D01*
X115261905Y-87668152D02*
X115214286Y-87572914D01*
X115214286Y-87572914D02*
X115214286Y-87525295D01*
X115214286Y-87525295D02*
X115261905Y-87430057D01*
X115261905Y-87430057D02*
X115309524Y-87382438D01*
X115309524Y-87382438D02*
X115404762Y-87334819D01*
X115404762Y-87334819D02*
X115595238Y-87334819D01*
X115595238Y-87334819D02*
X115690476Y-87382438D01*
X115690476Y-87382438D02*
X115738095Y-87430057D01*
X115738095Y-87430057D02*
X115785714Y-87525295D01*
X115785714Y-87525295D02*
X115785714Y-87572914D01*
X115785714Y-87572914D02*
X115738095Y-87668152D01*
X115738095Y-87668152D02*
X115690476Y-87715771D01*
X115690476Y-87715771D02*
X115595238Y-87763390D01*
X115595238Y-87763390D02*
X115404762Y-87763390D01*
X115404762Y-87763390D02*
X115309524Y-87811009D01*
X115309524Y-87811009D02*
X115261905Y-87858628D01*
X115261905Y-87858628D02*
X115214286Y-87953866D01*
X115214286Y-87953866D02*
X115214286Y-88144342D01*
X115214286Y-88144342D02*
X115261905Y-88239580D01*
X115261905Y-88239580D02*
X115309524Y-88287200D01*
X115309524Y-88287200D02*
X115404762Y-88334819D01*
X115404762Y-88334819D02*
X115595238Y-88334819D01*
X115595238Y-88334819D02*
X115690476Y-88287200D01*
X115690476Y-88287200D02*
X115738095Y-88239580D01*
X115738095Y-88239580D02*
X115785714Y-88144342D01*
X115785714Y-88144342D02*
X115785714Y-87953866D01*
X115785714Y-87953866D02*
X115738095Y-87858628D01*
X115738095Y-87858628D02*
X115690476Y-87811009D01*
X115690476Y-87811009D02*
X115595238Y-87763390D01*
X110928095Y-88654819D02*
X110928095Y-87654819D01*
X111499523Y-88654819D02*
X111070952Y-88083390D01*
X111499523Y-87654819D02*
X110928095Y-88226247D01*
X94261905Y-88334819D02*
X94261905Y-87334819D01*
X94261905Y-87334819D02*
X94500000Y-87334819D01*
X94500000Y-87334819D02*
X94642857Y-87382438D01*
X94642857Y-87382438D02*
X94738095Y-87477676D01*
X94738095Y-87477676D02*
X94785714Y-87572914D01*
X94785714Y-87572914D02*
X94833333Y-87763390D01*
X94833333Y-87763390D02*
X94833333Y-87906247D01*
X94833333Y-87906247D02*
X94785714Y-88096723D01*
X94785714Y-88096723D02*
X94738095Y-88191961D01*
X94738095Y-88191961D02*
X94642857Y-88287200D01*
X94642857Y-88287200D02*
X94500000Y-88334819D01*
X94500000Y-88334819D02*
X94261905Y-88334819D01*
X95166667Y-87334819D02*
X95833333Y-87334819D01*
X95833333Y-87334819D02*
X95404762Y-88334819D01*
X90928095Y-88654819D02*
X90928095Y-87654819D01*
X91499523Y-88654819D02*
X91070952Y-88083390D01*
X91499523Y-87654819D02*
X90928095Y-88226247D01*
X55451905Y-125834819D02*
X55451905Y-124834819D01*
X55451905Y-124834819D02*
X55690000Y-124834819D01*
X55690000Y-124834819D02*
X55832857Y-124882438D01*
X55832857Y-124882438D02*
X55928095Y-124977676D01*
X55928095Y-124977676D02*
X55975714Y-125072914D01*
X55975714Y-125072914D02*
X56023333Y-125263390D01*
X56023333Y-125263390D02*
X56023333Y-125406247D01*
X56023333Y-125406247D02*
X55975714Y-125596723D01*
X55975714Y-125596723D02*
X55928095Y-125691961D01*
X55928095Y-125691961D02*
X55832857Y-125787200D01*
X55832857Y-125787200D02*
X55690000Y-125834819D01*
X55690000Y-125834819D02*
X55451905Y-125834819D01*
X56499524Y-125834819D02*
X56690000Y-125834819D01*
X56690000Y-125834819D02*
X56785238Y-125787200D01*
X56785238Y-125787200D02*
X56832857Y-125739580D01*
X56832857Y-125739580D02*
X56928095Y-125596723D01*
X56928095Y-125596723D02*
X56975714Y-125406247D01*
X56975714Y-125406247D02*
X56975714Y-125025295D01*
X56975714Y-125025295D02*
X56928095Y-124930057D01*
X56928095Y-124930057D02*
X56880476Y-124882438D01*
X56880476Y-124882438D02*
X56785238Y-124834819D01*
X56785238Y-124834819D02*
X56594762Y-124834819D01*
X56594762Y-124834819D02*
X56499524Y-124882438D01*
X56499524Y-124882438D02*
X56451905Y-124930057D01*
X56451905Y-124930057D02*
X56404286Y-125025295D01*
X56404286Y-125025295D02*
X56404286Y-125263390D01*
X56404286Y-125263390D02*
X56451905Y-125358628D01*
X56451905Y-125358628D02*
X56499524Y-125406247D01*
X56499524Y-125406247D02*
X56594762Y-125453866D01*
X56594762Y-125453866D02*
X56785238Y-125453866D01*
X56785238Y-125453866D02*
X56880476Y-125406247D01*
X56880476Y-125406247D02*
X56928095Y-125358628D01*
X56928095Y-125358628D02*
X56975714Y-125263390D01*
X52118095Y-126154819D02*
X52118095Y-125154819D01*
X52689523Y-126154819D02*
X52260952Y-125583390D01*
X52689523Y-125154819D02*
X52118095Y-125726247D01*
X109740476Y-106707200D02*
X109883333Y-106754819D01*
X109883333Y-106754819D02*
X110121428Y-106754819D01*
X110121428Y-106754819D02*
X110216666Y-106707200D01*
X110216666Y-106707200D02*
X110264285Y-106659580D01*
X110264285Y-106659580D02*
X110311904Y-106564342D01*
X110311904Y-106564342D02*
X110311904Y-106469104D01*
X110311904Y-106469104D02*
X110264285Y-106373866D01*
X110264285Y-106373866D02*
X110216666Y-106326247D01*
X110216666Y-106326247D02*
X110121428Y-106278628D01*
X110121428Y-106278628D02*
X109930952Y-106231009D01*
X109930952Y-106231009D02*
X109835714Y-106183390D01*
X109835714Y-106183390D02*
X109788095Y-106135771D01*
X109788095Y-106135771D02*
X109740476Y-106040533D01*
X109740476Y-106040533D02*
X109740476Y-105945295D01*
X109740476Y-105945295D02*
X109788095Y-105850057D01*
X109788095Y-105850057D02*
X109835714Y-105802438D01*
X109835714Y-105802438D02*
X109930952Y-105754819D01*
X109930952Y-105754819D02*
X110169047Y-105754819D01*
X110169047Y-105754819D02*
X110311904Y-105802438D01*
X110645238Y-105754819D02*
X110883333Y-106754819D01*
X110883333Y-106754819D02*
X111073809Y-106040533D01*
X111073809Y-106040533D02*
X111264285Y-106754819D01*
X111264285Y-106754819D02*
X111502381Y-105754819D01*
X112407142Y-106754819D02*
X111835714Y-106754819D01*
X112121428Y-106754819D02*
X112121428Y-105754819D01*
X112121428Y-105754819D02*
X112026190Y-105897676D01*
X112026190Y-105897676D02*
X111930952Y-105992914D01*
X111930952Y-105992914D02*
X111835714Y-106040533D01*
X112740476Y-105754819D02*
X113407142Y-105754819D01*
X113407142Y-105754819D02*
X112978571Y-106754819D01*
X112490476Y-37433200D02*
X112633333Y-37480819D01*
X112633333Y-37480819D02*
X112871428Y-37480819D01*
X112871428Y-37480819D02*
X112966666Y-37433200D01*
X112966666Y-37433200D02*
X113014285Y-37385580D01*
X113014285Y-37385580D02*
X113061904Y-37290342D01*
X113061904Y-37290342D02*
X113061904Y-37195104D01*
X113061904Y-37195104D02*
X113014285Y-37099866D01*
X113014285Y-37099866D02*
X112966666Y-37052247D01*
X112966666Y-37052247D02*
X112871428Y-37004628D01*
X112871428Y-37004628D02*
X112680952Y-36957009D01*
X112680952Y-36957009D02*
X112585714Y-36909390D01*
X112585714Y-36909390D02*
X112538095Y-36861771D01*
X112538095Y-36861771D02*
X112490476Y-36766533D01*
X112490476Y-36766533D02*
X112490476Y-36671295D01*
X112490476Y-36671295D02*
X112538095Y-36576057D01*
X112538095Y-36576057D02*
X112585714Y-36528438D01*
X112585714Y-36528438D02*
X112680952Y-36480819D01*
X112680952Y-36480819D02*
X112919047Y-36480819D01*
X112919047Y-36480819D02*
X113061904Y-36528438D01*
X113395238Y-36480819D02*
X113633333Y-37480819D01*
X113633333Y-37480819D02*
X113823809Y-36766533D01*
X113823809Y-36766533D02*
X114014285Y-37480819D01*
X114014285Y-37480819D02*
X114252381Y-36480819D01*
X115157142Y-37480819D02*
X114585714Y-37480819D01*
X114871428Y-37480819D02*
X114871428Y-36480819D01*
X114871428Y-36480819D02*
X114776190Y-36623676D01*
X114776190Y-36623676D02*
X114680952Y-36718914D01*
X114680952Y-36718914D02*
X114585714Y-36766533D01*
X115538095Y-36576057D02*
X115585714Y-36528438D01*
X115585714Y-36528438D02*
X115680952Y-36480819D01*
X115680952Y-36480819D02*
X115919047Y-36480819D01*
X115919047Y-36480819D02*
X116014285Y-36528438D01*
X116014285Y-36528438D02*
X116061904Y-36576057D01*
X116061904Y-36576057D02*
X116109523Y-36671295D01*
X116109523Y-36671295D02*
X116109523Y-36766533D01*
X116109523Y-36766533D02*
X116061904Y-36909390D01*
X116061904Y-36909390D02*
X115490476Y-37480819D01*
X115490476Y-37480819D02*
X116109523Y-37480819D01*
X112490476Y-68733200D02*
X112633333Y-68780819D01*
X112633333Y-68780819D02*
X112871428Y-68780819D01*
X112871428Y-68780819D02*
X112966666Y-68733200D01*
X112966666Y-68733200D02*
X113014285Y-68685580D01*
X113014285Y-68685580D02*
X113061904Y-68590342D01*
X113061904Y-68590342D02*
X113061904Y-68495104D01*
X113061904Y-68495104D02*
X113014285Y-68399866D01*
X113014285Y-68399866D02*
X112966666Y-68352247D01*
X112966666Y-68352247D02*
X112871428Y-68304628D01*
X112871428Y-68304628D02*
X112680952Y-68257009D01*
X112680952Y-68257009D02*
X112585714Y-68209390D01*
X112585714Y-68209390D02*
X112538095Y-68161771D01*
X112538095Y-68161771D02*
X112490476Y-68066533D01*
X112490476Y-68066533D02*
X112490476Y-67971295D01*
X112490476Y-67971295D02*
X112538095Y-67876057D01*
X112538095Y-67876057D02*
X112585714Y-67828438D01*
X112585714Y-67828438D02*
X112680952Y-67780819D01*
X112680952Y-67780819D02*
X112919047Y-67780819D01*
X112919047Y-67780819D02*
X113061904Y-67828438D01*
X113395238Y-67780819D02*
X113633333Y-68780819D01*
X113633333Y-68780819D02*
X113823809Y-68066533D01*
X113823809Y-68066533D02*
X114014285Y-68780819D01*
X114014285Y-68780819D02*
X114252381Y-67780819D01*
X115157142Y-68780819D02*
X114585714Y-68780819D01*
X114871428Y-68780819D02*
X114871428Y-67780819D01*
X114871428Y-67780819D02*
X114776190Y-67923676D01*
X114776190Y-67923676D02*
X114680952Y-68018914D01*
X114680952Y-68018914D02*
X114585714Y-68066533D01*
X116109523Y-68780819D02*
X115538095Y-68780819D01*
X115823809Y-68780819D02*
X115823809Y-67780819D01*
X115823809Y-67780819D02*
X115728571Y-67923676D01*
X115728571Y-67923676D02*
X115633333Y-68018914D01*
X115633333Y-68018914D02*
X115538095Y-68066533D01*
X93440476Y-68733200D02*
X93583333Y-68780819D01*
X93583333Y-68780819D02*
X93821428Y-68780819D01*
X93821428Y-68780819D02*
X93916666Y-68733200D01*
X93916666Y-68733200D02*
X93964285Y-68685580D01*
X93964285Y-68685580D02*
X94011904Y-68590342D01*
X94011904Y-68590342D02*
X94011904Y-68495104D01*
X94011904Y-68495104D02*
X93964285Y-68399866D01*
X93964285Y-68399866D02*
X93916666Y-68352247D01*
X93916666Y-68352247D02*
X93821428Y-68304628D01*
X93821428Y-68304628D02*
X93630952Y-68257009D01*
X93630952Y-68257009D02*
X93535714Y-68209390D01*
X93535714Y-68209390D02*
X93488095Y-68161771D01*
X93488095Y-68161771D02*
X93440476Y-68066533D01*
X93440476Y-68066533D02*
X93440476Y-67971295D01*
X93440476Y-67971295D02*
X93488095Y-67876057D01*
X93488095Y-67876057D02*
X93535714Y-67828438D01*
X93535714Y-67828438D02*
X93630952Y-67780819D01*
X93630952Y-67780819D02*
X93869047Y-67780819D01*
X93869047Y-67780819D02*
X94011904Y-67828438D01*
X94345238Y-67780819D02*
X94583333Y-68780819D01*
X94583333Y-68780819D02*
X94773809Y-68066533D01*
X94773809Y-68066533D02*
X94964285Y-68780819D01*
X94964285Y-68780819D02*
X95202381Y-67780819D01*
X96107142Y-68780819D02*
X95535714Y-68780819D01*
X95821428Y-68780819D02*
X95821428Y-67780819D01*
X95821428Y-67780819D02*
X95726190Y-67923676D01*
X95726190Y-67923676D02*
X95630952Y-68018914D01*
X95630952Y-68018914D02*
X95535714Y-68066533D01*
X96726190Y-67780819D02*
X96821428Y-67780819D01*
X96821428Y-67780819D02*
X96916666Y-67828438D01*
X96916666Y-67828438D02*
X96964285Y-67876057D01*
X96964285Y-67876057D02*
X97011904Y-67971295D01*
X97011904Y-67971295D02*
X97059523Y-68161771D01*
X97059523Y-68161771D02*
X97059523Y-68399866D01*
X97059523Y-68399866D02*
X97011904Y-68590342D01*
X97011904Y-68590342D02*
X96964285Y-68685580D01*
X96964285Y-68685580D02*
X96916666Y-68733200D01*
X96916666Y-68733200D02*
X96821428Y-68780819D01*
X96821428Y-68780819D02*
X96726190Y-68780819D01*
X96726190Y-68780819D02*
X96630952Y-68733200D01*
X96630952Y-68733200D02*
X96583333Y-68685580D01*
X96583333Y-68685580D02*
X96535714Y-68590342D01*
X96535714Y-68590342D02*
X96488095Y-68399866D01*
X96488095Y-68399866D02*
X96488095Y-68161771D01*
X96488095Y-68161771D02*
X96535714Y-67971295D01*
X96535714Y-67971295D02*
X96583333Y-67876057D01*
X96583333Y-67876057D02*
X96630952Y-67828438D01*
X96630952Y-67828438D02*
X96726190Y-67780819D01*
X93916667Y-106833200D02*
X94059524Y-106880819D01*
X94059524Y-106880819D02*
X94297619Y-106880819D01*
X94297619Y-106880819D02*
X94392857Y-106833200D01*
X94392857Y-106833200D02*
X94440476Y-106785580D01*
X94440476Y-106785580D02*
X94488095Y-106690342D01*
X94488095Y-106690342D02*
X94488095Y-106595104D01*
X94488095Y-106595104D02*
X94440476Y-106499866D01*
X94440476Y-106499866D02*
X94392857Y-106452247D01*
X94392857Y-106452247D02*
X94297619Y-106404628D01*
X94297619Y-106404628D02*
X94107143Y-106357009D01*
X94107143Y-106357009D02*
X94011905Y-106309390D01*
X94011905Y-106309390D02*
X93964286Y-106261771D01*
X93964286Y-106261771D02*
X93916667Y-106166533D01*
X93916667Y-106166533D02*
X93916667Y-106071295D01*
X93916667Y-106071295D02*
X93964286Y-105976057D01*
X93964286Y-105976057D02*
X94011905Y-105928438D01*
X94011905Y-105928438D02*
X94107143Y-105880819D01*
X94107143Y-105880819D02*
X94345238Y-105880819D01*
X94345238Y-105880819D02*
X94488095Y-105928438D01*
X94821429Y-105880819D02*
X95059524Y-106880819D01*
X95059524Y-106880819D02*
X95250000Y-106166533D01*
X95250000Y-106166533D02*
X95440476Y-106880819D01*
X95440476Y-106880819D02*
X95678572Y-105880819D01*
X96202381Y-106309390D02*
X96107143Y-106261771D01*
X96107143Y-106261771D02*
X96059524Y-106214152D01*
X96059524Y-106214152D02*
X96011905Y-106118914D01*
X96011905Y-106118914D02*
X96011905Y-106071295D01*
X96011905Y-106071295D02*
X96059524Y-105976057D01*
X96059524Y-105976057D02*
X96107143Y-105928438D01*
X96107143Y-105928438D02*
X96202381Y-105880819D01*
X96202381Y-105880819D02*
X96392857Y-105880819D01*
X96392857Y-105880819D02*
X96488095Y-105928438D01*
X96488095Y-105928438D02*
X96535714Y-105976057D01*
X96535714Y-105976057D02*
X96583333Y-106071295D01*
X96583333Y-106071295D02*
X96583333Y-106118914D01*
X96583333Y-106118914D02*
X96535714Y-106214152D01*
X96535714Y-106214152D02*
X96488095Y-106261771D01*
X96488095Y-106261771D02*
X96392857Y-106309390D01*
X96392857Y-106309390D02*
X96202381Y-106309390D01*
X96202381Y-106309390D02*
X96107143Y-106357009D01*
X96107143Y-106357009D02*
X96059524Y-106404628D01*
X96059524Y-106404628D02*
X96011905Y-106499866D01*
X96011905Y-106499866D02*
X96011905Y-106690342D01*
X96011905Y-106690342D02*
X96059524Y-106785580D01*
X96059524Y-106785580D02*
X96107143Y-106833200D01*
X96107143Y-106833200D02*
X96202381Y-106880819D01*
X96202381Y-106880819D02*
X96392857Y-106880819D01*
X96392857Y-106880819D02*
X96488095Y-106833200D01*
X96488095Y-106833200D02*
X96535714Y-106785580D01*
X96535714Y-106785580D02*
X96583333Y-106690342D01*
X96583333Y-106690342D02*
X96583333Y-106499866D01*
X96583333Y-106499866D02*
X96535714Y-106404628D01*
X96535714Y-106404628D02*
X96488095Y-106357009D01*
X96488095Y-106357009D02*
X96392857Y-106309390D01*
X74866667Y-106833200D02*
X75009524Y-106880819D01*
X75009524Y-106880819D02*
X75247619Y-106880819D01*
X75247619Y-106880819D02*
X75342857Y-106833200D01*
X75342857Y-106833200D02*
X75390476Y-106785580D01*
X75390476Y-106785580D02*
X75438095Y-106690342D01*
X75438095Y-106690342D02*
X75438095Y-106595104D01*
X75438095Y-106595104D02*
X75390476Y-106499866D01*
X75390476Y-106499866D02*
X75342857Y-106452247D01*
X75342857Y-106452247D02*
X75247619Y-106404628D01*
X75247619Y-106404628D02*
X75057143Y-106357009D01*
X75057143Y-106357009D02*
X74961905Y-106309390D01*
X74961905Y-106309390D02*
X74914286Y-106261771D01*
X74914286Y-106261771D02*
X74866667Y-106166533D01*
X74866667Y-106166533D02*
X74866667Y-106071295D01*
X74866667Y-106071295D02*
X74914286Y-105976057D01*
X74914286Y-105976057D02*
X74961905Y-105928438D01*
X74961905Y-105928438D02*
X75057143Y-105880819D01*
X75057143Y-105880819D02*
X75295238Y-105880819D01*
X75295238Y-105880819D02*
X75438095Y-105928438D01*
X75771429Y-105880819D02*
X76009524Y-106880819D01*
X76009524Y-106880819D02*
X76200000Y-106166533D01*
X76200000Y-106166533D02*
X76390476Y-106880819D01*
X76390476Y-106880819D02*
X76628572Y-105880819D01*
X76914286Y-105880819D02*
X77580952Y-105880819D01*
X77580952Y-105880819D02*
X77152381Y-106880819D01*
X74866667Y-68733200D02*
X75009524Y-68780819D01*
X75009524Y-68780819D02*
X75247619Y-68780819D01*
X75247619Y-68780819D02*
X75342857Y-68733200D01*
X75342857Y-68733200D02*
X75390476Y-68685580D01*
X75390476Y-68685580D02*
X75438095Y-68590342D01*
X75438095Y-68590342D02*
X75438095Y-68495104D01*
X75438095Y-68495104D02*
X75390476Y-68399866D01*
X75390476Y-68399866D02*
X75342857Y-68352247D01*
X75342857Y-68352247D02*
X75247619Y-68304628D01*
X75247619Y-68304628D02*
X75057143Y-68257009D01*
X75057143Y-68257009D02*
X74961905Y-68209390D01*
X74961905Y-68209390D02*
X74914286Y-68161771D01*
X74914286Y-68161771D02*
X74866667Y-68066533D01*
X74866667Y-68066533D02*
X74866667Y-67971295D01*
X74866667Y-67971295D02*
X74914286Y-67876057D01*
X74914286Y-67876057D02*
X74961905Y-67828438D01*
X74961905Y-67828438D02*
X75057143Y-67780819D01*
X75057143Y-67780819D02*
X75295238Y-67780819D01*
X75295238Y-67780819D02*
X75438095Y-67828438D01*
X75771429Y-67780819D02*
X76009524Y-68780819D01*
X76009524Y-68780819D02*
X76200000Y-68066533D01*
X76200000Y-68066533D02*
X76390476Y-68780819D01*
X76390476Y-68780819D02*
X76628572Y-67780819D01*
X77485714Y-67780819D02*
X77009524Y-67780819D01*
X77009524Y-67780819D02*
X76961905Y-68257009D01*
X76961905Y-68257009D02*
X77009524Y-68209390D01*
X77009524Y-68209390D02*
X77104762Y-68161771D01*
X77104762Y-68161771D02*
X77342857Y-68161771D01*
X77342857Y-68161771D02*
X77438095Y-68209390D01*
X77438095Y-68209390D02*
X77485714Y-68257009D01*
X77485714Y-68257009D02*
X77533333Y-68352247D01*
X77533333Y-68352247D02*
X77533333Y-68590342D01*
X77533333Y-68590342D02*
X77485714Y-68685580D01*
X77485714Y-68685580D02*
X77438095Y-68733200D01*
X77438095Y-68733200D02*
X77342857Y-68780819D01*
X77342857Y-68780819D02*
X77104762Y-68780819D01*
X77104762Y-68780819D02*
X77009524Y-68733200D01*
X77009524Y-68733200D02*
X76961905Y-68685580D01*
X55816667Y-68733200D02*
X55959524Y-68780819D01*
X55959524Y-68780819D02*
X56197619Y-68780819D01*
X56197619Y-68780819D02*
X56292857Y-68733200D01*
X56292857Y-68733200D02*
X56340476Y-68685580D01*
X56340476Y-68685580D02*
X56388095Y-68590342D01*
X56388095Y-68590342D02*
X56388095Y-68495104D01*
X56388095Y-68495104D02*
X56340476Y-68399866D01*
X56340476Y-68399866D02*
X56292857Y-68352247D01*
X56292857Y-68352247D02*
X56197619Y-68304628D01*
X56197619Y-68304628D02*
X56007143Y-68257009D01*
X56007143Y-68257009D02*
X55911905Y-68209390D01*
X55911905Y-68209390D02*
X55864286Y-68161771D01*
X55864286Y-68161771D02*
X55816667Y-68066533D01*
X55816667Y-68066533D02*
X55816667Y-67971295D01*
X55816667Y-67971295D02*
X55864286Y-67876057D01*
X55864286Y-67876057D02*
X55911905Y-67828438D01*
X55911905Y-67828438D02*
X56007143Y-67780819D01*
X56007143Y-67780819D02*
X56245238Y-67780819D01*
X56245238Y-67780819D02*
X56388095Y-67828438D01*
X56721429Y-67780819D02*
X56959524Y-68780819D01*
X56959524Y-68780819D02*
X57150000Y-68066533D01*
X57150000Y-68066533D02*
X57340476Y-68780819D01*
X57340476Y-68780819D02*
X57578572Y-67780819D01*
X58388095Y-68114152D02*
X58388095Y-68780819D01*
X58150000Y-67733200D02*
X57911905Y-68447485D01*
X57911905Y-68447485D02*
X58530952Y-68447485D01*
X93916667Y-37433200D02*
X94059524Y-37480819D01*
X94059524Y-37480819D02*
X94297619Y-37480819D01*
X94297619Y-37480819D02*
X94392857Y-37433200D01*
X94392857Y-37433200D02*
X94440476Y-37385580D01*
X94440476Y-37385580D02*
X94488095Y-37290342D01*
X94488095Y-37290342D02*
X94488095Y-37195104D01*
X94488095Y-37195104D02*
X94440476Y-37099866D01*
X94440476Y-37099866D02*
X94392857Y-37052247D01*
X94392857Y-37052247D02*
X94297619Y-37004628D01*
X94297619Y-37004628D02*
X94107143Y-36957009D01*
X94107143Y-36957009D02*
X94011905Y-36909390D01*
X94011905Y-36909390D02*
X93964286Y-36861771D01*
X93964286Y-36861771D02*
X93916667Y-36766533D01*
X93916667Y-36766533D02*
X93916667Y-36671295D01*
X93916667Y-36671295D02*
X93964286Y-36576057D01*
X93964286Y-36576057D02*
X94011905Y-36528438D01*
X94011905Y-36528438D02*
X94107143Y-36480819D01*
X94107143Y-36480819D02*
X94345238Y-36480819D01*
X94345238Y-36480819D02*
X94488095Y-36528438D01*
X94821429Y-36480819D02*
X95059524Y-37480819D01*
X95059524Y-37480819D02*
X95250000Y-36766533D01*
X95250000Y-36766533D02*
X95440476Y-37480819D01*
X95440476Y-37480819D02*
X95678572Y-36480819D01*
X95964286Y-36480819D02*
X96583333Y-36480819D01*
X96583333Y-36480819D02*
X96250000Y-36861771D01*
X96250000Y-36861771D02*
X96392857Y-36861771D01*
X96392857Y-36861771D02*
X96488095Y-36909390D01*
X96488095Y-36909390D02*
X96535714Y-36957009D01*
X96535714Y-36957009D02*
X96583333Y-37052247D01*
X96583333Y-37052247D02*
X96583333Y-37290342D01*
X96583333Y-37290342D02*
X96535714Y-37385580D01*
X96535714Y-37385580D02*
X96488095Y-37433200D01*
X96488095Y-37433200D02*
X96392857Y-37480819D01*
X96392857Y-37480819D02*
X96107143Y-37480819D01*
X96107143Y-37480819D02*
X96011905Y-37433200D01*
X96011905Y-37433200D02*
X95964286Y-37385580D01*
X74866667Y-37433200D02*
X75009524Y-37480819D01*
X75009524Y-37480819D02*
X75247619Y-37480819D01*
X75247619Y-37480819D02*
X75342857Y-37433200D01*
X75342857Y-37433200D02*
X75390476Y-37385580D01*
X75390476Y-37385580D02*
X75438095Y-37290342D01*
X75438095Y-37290342D02*
X75438095Y-37195104D01*
X75438095Y-37195104D02*
X75390476Y-37099866D01*
X75390476Y-37099866D02*
X75342857Y-37052247D01*
X75342857Y-37052247D02*
X75247619Y-37004628D01*
X75247619Y-37004628D02*
X75057143Y-36957009D01*
X75057143Y-36957009D02*
X74961905Y-36909390D01*
X74961905Y-36909390D02*
X74914286Y-36861771D01*
X74914286Y-36861771D02*
X74866667Y-36766533D01*
X74866667Y-36766533D02*
X74866667Y-36671295D01*
X74866667Y-36671295D02*
X74914286Y-36576057D01*
X74914286Y-36576057D02*
X74961905Y-36528438D01*
X74961905Y-36528438D02*
X75057143Y-36480819D01*
X75057143Y-36480819D02*
X75295238Y-36480819D01*
X75295238Y-36480819D02*
X75438095Y-36528438D01*
X75771429Y-36480819D02*
X76009524Y-37480819D01*
X76009524Y-37480819D02*
X76200000Y-36766533D01*
X76200000Y-36766533D02*
X76390476Y-37480819D01*
X76390476Y-37480819D02*
X76628572Y-36480819D01*
X76961905Y-36576057D02*
X77009524Y-36528438D01*
X77009524Y-36528438D02*
X77104762Y-36480819D01*
X77104762Y-36480819D02*
X77342857Y-36480819D01*
X77342857Y-36480819D02*
X77438095Y-36528438D01*
X77438095Y-36528438D02*
X77485714Y-36576057D01*
X77485714Y-36576057D02*
X77533333Y-36671295D01*
X77533333Y-36671295D02*
X77533333Y-36766533D01*
X77533333Y-36766533D02*
X77485714Y-36909390D01*
X77485714Y-36909390D02*
X76914286Y-37480819D01*
X76914286Y-37480819D02*
X77533333Y-37480819D01*
X55816667Y-37433200D02*
X55959524Y-37480819D01*
X55959524Y-37480819D02*
X56197619Y-37480819D01*
X56197619Y-37480819D02*
X56292857Y-37433200D01*
X56292857Y-37433200D02*
X56340476Y-37385580D01*
X56340476Y-37385580D02*
X56388095Y-37290342D01*
X56388095Y-37290342D02*
X56388095Y-37195104D01*
X56388095Y-37195104D02*
X56340476Y-37099866D01*
X56340476Y-37099866D02*
X56292857Y-37052247D01*
X56292857Y-37052247D02*
X56197619Y-37004628D01*
X56197619Y-37004628D02*
X56007143Y-36957009D01*
X56007143Y-36957009D02*
X55911905Y-36909390D01*
X55911905Y-36909390D02*
X55864286Y-36861771D01*
X55864286Y-36861771D02*
X55816667Y-36766533D01*
X55816667Y-36766533D02*
X55816667Y-36671295D01*
X55816667Y-36671295D02*
X55864286Y-36576057D01*
X55864286Y-36576057D02*
X55911905Y-36528438D01*
X55911905Y-36528438D02*
X56007143Y-36480819D01*
X56007143Y-36480819D02*
X56245238Y-36480819D01*
X56245238Y-36480819D02*
X56388095Y-36528438D01*
X56721429Y-36480819D02*
X56959524Y-37480819D01*
X56959524Y-37480819D02*
X57150000Y-36766533D01*
X57150000Y-36766533D02*
X57340476Y-37480819D01*
X57340476Y-37480819D02*
X57578572Y-36480819D01*
X58483333Y-37480819D02*
X57911905Y-37480819D01*
X58197619Y-37480819D02*
X58197619Y-36480819D01*
X58197619Y-36480819D02*
X58102381Y-36623676D01*
X58102381Y-36623676D02*
X58007143Y-36718914D01*
X58007143Y-36718914D02*
X57911905Y-36766533D01*
X116285714Y-122734819D02*
X116285714Y-121734819D01*
X116285714Y-121734819D02*
X116523809Y-121734819D01*
X116523809Y-121734819D02*
X116666666Y-121782438D01*
X116666666Y-121782438D02*
X116761904Y-121877676D01*
X116761904Y-121877676D02*
X116809523Y-121972914D01*
X116809523Y-121972914D02*
X116857142Y-122163390D01*
X116857142Y-122163390D02*
X116857142Y-122306247D01*
X116857142Y-122306247D02*
X116809523Y-122496723D01*
X116809523Y-122496723D02*
X116761904Y-122591961D01*
X116761904Y-122591961D02*
X116666666Y-122687200D01*
X116666666Y-122687200D02*
X116523809Y-122734819D01*
X116523809Y-122734819D02*
X116285714Y-122734819D01*
X117809523Y-122734819D02*
X117238095Y-122734819D01*
X117523809Y-122734819D02*
X117523809Y-121734819D01*
X117523809Y-121734819D02*
X117428571Y-121877676D01*
X117428571Y-121877676D02*
X117333333Y-121972914D01*
X117333333Y-121972914D02*
X117238095Y-122020533D01*
X118190476Y-121830057D02*
X118238095Y-121782438D01*
X118238095Y-121782438D02*
X118333333Y-121734819D01*
X118333333Y-121734819D02*
X118571428Y-121734819D01*
X118571428Y-121734819D02*
X118666666Y-121782438D01*
X118666666Y-121782438D02*
X118714285Y-121830057D01*
X118714285Y-121830057D02*
X118761904Y-121925295D01*
X118761904Y-121925295D02*
X118761904Y-122020533D01*
X118761904Y-122020533D02*
X118714285Y-122163390D01*
X118714285Y-122163390D02*
X118142857Y-122734819D01*
X118142857Y-122734819D02*
X118761904Y-122734819D01*
X113428095Y-123054819D02*
X113428095Y-122054819D01*
X113999523Y-123054819D02*
X113570952Y-122483390D01*
X113999523Y-122054819D02*
X113428095Y-122626247D01*
X93785714Y-125834819D02*
X93785714Y-124834819D01*
X93785714Y-124834819D02*
X94023809Y-124834819D01*
X94023809Y-124834819D02*
X94166666Y-124882438D01*
X94166666Y-124882438D02*
X94261904Y-124977676D01*
X94261904Y-124977676D02*
X94309523Y-125072914D01*
X94309523Y-125072914D02*
X94357142Y-125263390D01*
X94357142Y-125263390D02*
X94357142Y-125406247D01*
X94357142Y-125406247D02*
X94309523Y-125596723D01*
X94309523Y-125596723D02*
X94261904Y-125691961D01*
X94261904Y-125691961D02*
X94166666Y-125787200D01*
X94166666Y-125787200D02*
X94023809Y-125834819D01*
X94023809Y-125834819D02*
X93785714Y-125834819D01*
X95309523Y-125834819D02*
X94738095Y-125834819D01*
X95023809Y-125834819D02*
X95023809Y-124834819D01*
X95023809Y-124834819D02*
X94928571Y-124977676D01*
X94928571Y-124977676D02*
X94833333Y-125072914D01*
X94833333Y-125072914D02*
X94738095Y-125120533D01*
X96261904Y-125834819D02*
X95690476Y-125834819D01*
X95976190Y-125834819D02*
X95976190Y-124834819D01*
X95976190Y-124834819D02*
X95880952Y-124977676D01*
X95880952Y-124977676D02*
X95785714Y-125072914D01*
X95785714Y-125072914D02*
X95690476Y-125120533D01*
X90928095Y-126154819D02*
X90928095Y-125154819D01*
X91499523Y-126154819D02*
X91070952Y-125583390D01*
X91499523Y-125154819D02*
X90928095Y-125726247D01*
X76285714Y-125834819D02*
X76285714Y-124834819D01*
X76285714Y-124834819D02*
X76523809Y-124834819D01*
X76523809Y-124834819D02*
X76666666Y-124882438D01*
X76666666Y-124882438D02*
X76761904Y-124977676D01*
X76761904Y-124977676D02*
X76809523Y-125072914D01*
X76809523Y-125072914D02*
X76857142Y-125263390D01*
X76857142Y-125263390D02*
X76857142Y-125406247D01*
X76857142Y-125406247D02*
X76809523Y-125596723D01*
X76809523Y-125596723D02*
X76761904Y-125691961D01*
X76761904Y-125691961D02*
X76666666Y-125787200D01*
X76666666Y-125787200D02*
X76523809Y-125834819D01*
X76523809Y-125834819D02*
X76285714Y-125834819D01*
X77809523Y-125834819D02*
X77238095Y-125834819D01*
X77523809Y-125834819D02*
X77523809Y-124834819D01*
X77523809Y-124834819D02*
X77428571Y-124977676D01*
X77428571Y-124977676D02*
X77333333Y-125072914D01*
X77333333Y-125072914D02*
X77238095Y-125120533D01*
X78428571Y-124834819D02*
X78523809Y-124834819D01*
X78523809Y-124834819D02*
X78619047Y-124882438D01*
X78619047Y-124882438D02*
X78666666Y-124930057D01*
X78666666Y-124930057D02*
X78714285Y-125025295D01*
X78714285Y-125025295D02*
X78761904Y-125215771D01*
X78761904Y-125215771D02*
X78761904Y-125453866D01*
X78761904Y-125453866D02*
X78714285Y-125644342D01*
X78714285Y-125644342D02*
X78666666Y-125739580D01*
X78666666Y-125739580D02*
X78619047Y-125787200D01*
X78619047Y-125787200D02*
X78523809Y-125834819D01*
X78523809Y-125834819D02*
X78428571Y-125834819D01*
X78428571Y-125834819D02*
X78333333Y-125787200D01*
X78333333Y-125787200D02*
X78285714Y-125739580D01*
X78285714Y-125739580D02*
X78238095Y-125644342D01*
X78238095Y-125644342D02*
X78190476Y-125453866D01*
X78190476Y-125453866D02*
X78190476Y-125215771D01*
X78190476Y-125215771D02*
X78238095Y-125025295D01*
X78238095Y-125025295D02*
X78285714Y-124930057D01*
X78285714Y-124930057D02*
X78333333Y-124882438D01*
X78333333Y-124882438D02*
X78428571Y-124834819D01*
X73428095Y-126154819D02*
X73428095Y-125154819D01*
X73999523Y-126154819D02*
X73570952Y-125583390D01*
X73999523Y-125154819D02*
X73428095Y-125726247D01*
%TO.C,J1*%
D11*
X125620000Y-108310000D02*
X127000000Y-108310000D01*
X125620000Y-109690000D02*
X125620000Y-108310000D01*
X125620000Y-110960000D02*
X125620000Y-118690000D01*
X125620000Y-110960000D02*
X128380000Y-110960000D01*
X125620000Y-118690000D02*
X128380000Y-118690000D01*
X128380000Y-110960000D02*
X128380000Y-118690000D01*
%TO.C,SW6*%
X64135000Y-121285000D02*
X50165000Y-121285000D01*
X64135000Y-107315000D02*
X64135000Y-121285000D01*
X50165000Y-121285000D02*
X50165000Y-107315000D01*
X50165000Y-107315000D02*
X64135000Y-107315000D01*
%TO.C,D1*%
X54880000Y-56030000D02*
X59120000Y-56030000D01*
X59120000Y-58270000D01*
X54880000Y-58270000D01*
X54880000Y-56030000D01*
X59770000Y-57150000D02*
X59120000Y-57150000D01*
X55720000Y-56030000D02*
X55720000Y-58270000D01*
X55600000Y-56030000D02*
X55600000Y-58270000D01*
X55480000Y-56030000D02*
X55480000Y-58270000D01*
X54230000Y-57150000D02*
X54880000Y-57150000D01*
%TO.C,D6*%
X72880000Y-88880000D02*
X77120000Y-88880000D01*
X77120000Y-91120000D01*
X72880000Y-91120000D01*
X72880000Y-88880000D01*
X77770000Y-90000000D02*
X77120000Y-90000000D01*
X73720000Y-88880000D02*
X73720000Y-91120000D01*
X73600000Y-88880000D02*
X73600000Y-91120000D01*
X73480000Y-88880000D02*
X73480000Y-91120000D01*
X72230000Y-90000000D02*
X72880000Y-90000000D01*
%TO.C,D2*%
X77890000Y-56030000D02*
X82130000Y-56030000D01*
X82130000Y-58270000D01*
X77890000Y-58270000D01*
X77890000Y-56030000D01*
X82780000Y-57150000D02*
X82130000Y-57150000D01*
X78730000Y-56030000D02*
X78730000Y-58270000D01*
X78610000Y-56030000D02*
X78610000Y-58270000D01*
X78490000Y-56030000D02*
X78490000Y-58270000D01*
X77240000Y-57150000D02*
X77890000Y-57150000D01*
%TO.C,D3*%
X92880000Y-56380000D02*
X97120000Y-56380000D01*
X97120000Y-58620000D01*
X92880000Y-58620000D01*
X92880000Y-56380000D01*
X97770000Y-57500000D02*
X97120000Y-57500000D01*
X93720000Y-56380000D02*
X93720000Y-58620000D01*
X93600000Y-56380000D02*
X93600000Y-58620000D01*
X93480000Y-56380000D02*
X93480000Y-58620000D01*
X92230000Y-57500000D02*
X92880000Y-57500000D01*
%TO.C,D4*%
X112880000Y-56380000D02*
X117120000Y-56380000D01*
X117120000Y-58620000D01*
X112880000Y-58620000D01*
X112880000Y-56380000D01*
X117770000Y-57500000D02*
X117120000Y-57500000D01*
X113720000Y-56380000D02*
X113720000Y-58620000D01*
X113600000Y-56380000D02*
X113600000Y-58620000D01*
X113480000Y-56380000D02*
X113480000Y-58620000D01*
X112230000Y-57500000D02*
X112880000Y-57500000D01*
%TO.C,D5*%
X55380000Y-88880000D02*
X59620000Y-88880000D01*
X59620000Y-91120000D01*
X55380000Y-91120000D01*
X55380000Y-88880000D01*
X60270000Y-90000000D02*
X59620000Y-90000000D01*
X56220000Y-88880000D02*
X56220000Y-91120000D01*
X56100000Y-88880000D02*
X56100000Y-91120000D01*
X55980000Y-88880000D02*
X55980000Y-91120000D01*
X54730000Y-90000000D02*
X55380000Y-90000000D01*
%TO.C,D8*%
X112880000Y-88880000D02*
X117120000Y-88880000D01*
X117120000Y-91120000D01*
X112880000Y-91120000D01*
X112880000Y-88880000D01*
X117770000Y-90000000D02*
X117120000Y-90000000D01*
X113720000Y-88880000D02*
X113720000Y-91120000D01*
X113600000Y-88880000D02*
X113600000Y-91120000D01*
X113480000Y-88880000D02*
X113480000Y-91120000D01*
X112230000Y-90000000D02*
X112880000Y-90000000D01*
%TO.C,D7*%
X92880000Y-88880000D02*
X97120000Y-88880000D01*
X97120000Y-91120000D01*
X92880000Y-91120000D01*
X92880000Y-88880000D01*
X97770000Y-90000000D02*
X97120000Y-90000000D01*
X93720000Y-88880000D02*
X93720000Y-91120000D01*
X93600000Y-88880000D02*
X93600000Y-91120000D01*
X93480000Y-88880000D02*
X93480000Y-91120000D01*
X92230000Y-90000000D02*
X92880000Y-90000000D01*
%TO.C,D9*%
X54070000Y-126380000D02*
X58310000Y-126380000D01*
X58310000Y-128620000D01*
X54070000Y-128620000D01*
X54070000Y-126380000D01*
X58960000Y-127500000D02*
X58310000Y-127500000D01*
X54910000Y-126380000D02*
X54910000Y-128620000D01*
X54790000Y-126380000D02*
X54790000Y-128620000D01*
X54670000Y-126380000D02*
X54670000Y-128620000D01*
X53420000Y-127500000D02*
X54070000Y-127500000D01*
%TO.C,SW17*%
X108450000Y-109400000D02*
X109050000Y-109400000D01*
X108750000Y-109700000D02*
X108450000Y-109400000D01*
X109050000Y-109400000D02*
X108750000Y-109700000D01*
X110150000Y-107600000D02*
X110150000Y-119400000D01*
X114250000Y-107600000D02*
X110150000Y-107600000D01*
X114250000Y-119400000D02*
X110150000Y-119400000D01*
X115750000Y-113500000D02*
X116750000Y-113500000D01*
X116250000Y-113000000D02*
X116250000Y-114000000D01*
X118250000Y-107600000D02*
X122350000Y-107600000D01*
X122350000Y-107600000D02*
X122350000Y-110000000D01*
X122350000Y-112200000D02*
X122350000Y-114800000D01*
X122350000Y-117000000D02*
X122350000Y-119400000D01*
X122350000Y-119400000D02*
X118250000Y-119400000D01*
X119250000Y-113500000D02*
G75*
G02*
X113250000Y-113500000I-3000000J0D01*
G01*
X113250000Y-113500000D02*
G75*
G02*
X119250000Y-113500000I3000000J0D01*
G01*
%TO.C,SW12*%
X107315000Y-37915000D02*
X121285000Y-37915000D01*
X107315000Y-51885000D02*
X107315000Y-37915000D01*
X121285000Y-37915000D02*
X121285000Y-51885000D01*
X121285000Y-51885000D02*
X107315000Y-51885000D01*
%TO.C,SW11*%
X107315000Y-69215000D02*
X121285000Y-69215000D01*
X107315000Y-83185000D02*
X107315000Y-69215000D01*
X121285000Y-69215000D02*
X121285000Y-83185000D01*
X121285000Y-83185000D02*
X107315000Y-83185000D01*
%TO.C,SW10*%
X88265000Y-69215000D02*
X102235000Y-69215000D01*
X88265000Y-83185000D02*
X88265000Y-69215000D01*
X102235000Y-69215000D02*
X102235000Y-83185000D01*
X102235000Y-83185000D02*
X88265000Y-83185000D01*
%TO.C,SW8*%
X88265000Y-107315000D02*
X102235000Y-107315000D01*
X88265000Y-121285000D02*
X88265000Y-107315000D01*
X102235000Y-107315000D02*
X102235000Y-121285000D01*
X102235000Y-121285000D02*
X88265000Y-121285000D01*
%TO.C,SW7*%
X69215000Y-107315000D02*
X83185000Y-107315000D01*
X69215000Y-121285000D02*
X69215000Y-107315000D01*
X83185000Y-107315000D02*
X83185000Y-121285000D01*
X83185000Y-121285000D02*
X69215000Y-121285000D01*
%TO.C,SW5*%
X69215000Y-69215000D02*
X83185000Y-69215000D01*
X69215000Y-83185000D02*
X69215000Y-69215000D01*
X83185000Y-69215000D02*
X83185000Y-83185000D01*
X83185000Y-83185000D02*
X69215000Y-83185000D01*
%TO.C,SW4*%
X50165000Y-69215000D02*
X64135000Y-69215000D01*
X50165000Y-83185000D02*
X50165000Y-69215000D01*
X64135000Y-69215000D02*
X64135000Y-83185000D01*
X64135000Y-83185000D02*
X50165000Y-83185000D01*
%TO.C,SW3*%
X88265000Y-37915000D02*
X102235000Y-37915000D01*
X88265000Y-51885000D02*
X88265000Y-37915000D01*
X102235000Y-37915000D02*
X102235000Y-51885000D01*
X102235000Y-51885000D02*
X88265000Y-51885000D01*
%TO.C,SW2*%
X69215000Y-37915000D02*
X83185000Y-37915000D01*
X69215000Y-51885000D02*
X69215000Y-37915000D01*
X83185000Y-37915000D02*
X83185000Y-51885000D01*
X83185000Y-51885000D02*
X69215000Y-51885000D01*
%TO.C,SW1*%
X50165000Y-37915000D02*
X64135000Y-37915000D01*
X50165000Y-51885000D02*
X50165000Y-37915000D01*
X64135000Y-37915000D02*
X64135000Y-51885000D01*
X64135000Y-51885000D02*
X50165000Y-51885000D01*
%TO.C,D12*%
X114730000Y-124400000D02*
X115380000Y-124400000D01*
X115980000Y-123280000D02*
X115980000Y-125520000D01*
X116100000Y-123280000D02*
X116100000Y-125520000D01*
X116220000Y-123280000D02*
X116220000Y-125520000D01*
X120270000Y-124400000D02*
X119620000Y-124400000D01*
X115380000Y-123280000D02*
X119620000Y-123280000D01*
X119620000Y-125520000D01*
X115380000Y-125520000D01*
X115380000Y-123280000D01*
%TO.C,D11*%
X92230000Y-127500000D02*
X92880000Y-127500000D01*
X93480000Y-126380000D02*
X93480000Y-128620000D01*
X93600000Y-126380000D02*
X93600000Y-128620000D01*
X93720000Y-126380000D02*
X93720000Y-128620000D01*
X97770000Y-127500000D02*
X97120000Y-127500000D01*
X92880000Y-126380000D02*
X97120000Y-126380000D01*
X97120000Y-128620000D01*
X92880000Y-128620000D01*
X92880000Y-126380000D01*
%TO.C,D10*%
X74730000Y-127500000D02*
X75380000Y-127500000D01*
X75980000Y-126380000D02*
X75980000Y-128620000D01*
X76100000Y-126380000D02*
X76100000Y-128620000D01*
X76220000Y-126380000D02*
X76220000Y-128620000D01*
X80270000Y-127500000D02*
X79620000Y-127500000D01*
X75380000Y-126380000D02*
X79620000Y-126380000D01*
X79620000Y-128620000D01*
X75380000Y-128620000D01*
X75380000Y-126380000D01*
%TD*%
M02*
