%TF.GenerationSoftware,KiCad,Pcbnew,10.0.3*%
%TF.CreationDate,2026-06-07T12:23:16-04:00*%
%TF.ProjectId,Hackpad,4861636b-7061-4642-9e6b-696361645f70,rev?*%
%TF.SameCoordinates,Original*%
%TF.FileFunction,Legend,Bot*%
%TF.FilePolarity,Positive*%
%FSLAX46Y46*%
G04 Gerber Fmt 4.6, Leading zero omitted, Abs format (unit mm)*
G04 Created by KiCad (PCBNEW 10.0.3) date 2026-06-07 12:23:16*
%MOMM*%
%LPD*%
G01*
G04 APERTURE LIST*
%ADD10C,0.101600*%
%ADD11C,0.150000*%
%ADD12C,0.025400*%
%ADD13C,0.254000*%
%ADD14C,0.120000*%
%ADD15C,0.127000*%
G04 APERTURE END LIST*
D10*
X95677333Y-119356985D02*
X95677333Y-120076652D01*
X95677333Y-120076652D02*
X95635000Y-120161318D01*
X95635000Y-120161318D02*
X95592666Y-120203652D01*
X95592666Y-120203652D02*
X95508000Y-120245985D01*
X95508000Y-120245985D02*
X95338666Y-120245985D01*
X95338666Y-120245985D02*
X95254000Y-120203652D01*
X95254000Y-120203652D02*
X95211666Y-120161318D01*
X95211666Y-120161318D02*
X95169333Y-120076652D01*
X95169333Y-120076652D02*
X95169333Y-119356985D01*
X94788333Y-119441652D02*
X94746000Y-119399318D01*
X94746000Y-119399318D02*
X94661333Y-119356985D01*
X94661333Y-119356985D02*
X94449667Y-119356985D01*
X94449667Y-119356985D02*
X94365000Y-119399318D01*
X94365000Y-119399318D02*
X94322667Y-119441652D01*
X94322667Y-119441652D02*
X94280333Y-119526318D01*
X94280333Y-119526318D02*
X94280333Y-119610985D01*
X94280333Y-119610985D02*
X94322667Y-119737985D01*
X94322667Y-119737985D02*
X94830667Y-120245985D01*
X94830667Y-120245985D02*
X94280333Y-120245985D01*
D11*
X90238095Y-123472800D02*
X90380952Y-123425180D01*
X90380952Y-123425180D02*
X90619047Y-123425180D01*
X90619047Y-123425180D02*
X90714285Y-123472800D01*
X90714285Y-123472800D02*
X90761904Y-123520419D01*
X90761904Y-123520419D02*
X90809523Y-123615657D01*
X90809523Y-123615657D02*
X90809523Y-123710895D01*
X90809523Y-123710895D02*
X90761904Y-123806133D01*
X90761904Y-123806133D02*
X90714285Y-123853752D01*
X90714285Y-123853752D02*
X90619047Y-123901371D01*
X90619047Y-123901371D02*
X90428571Y-123948990D01*
X90428571Y-123948990D02*
X90333333Y-123996609D01*
X90333333Y-123996609D02*
X90285714Y-124044228D01*
X90285714Y-124044228D02*
X90238095Y-124139466D01*
X90238095Y-124139466D02*
X90238095Y-124234704D01*
X90238095Y-124234704D02*
X90285714Y-124329942D01*
X90285714Y-124329942D02*
X90333333Y-124377561D01*
X90333333Y-124377561D02*
X90428571Y-124425180D01*
X90428571Y-124425180D02*
X90666666Y-124425180D01*
X90666666Y-124425180D02*
X90809523Y-124377561D01*
X91619047Y-123472800D02*
X91523809Y-123425180D01*
X91523809Y-123425180D02*
X91333333Y-123425180D01*
X91333333Y-123425180D02*
X91238095Y-123472800D01*
X91238095Y-123472800D02*
X91190476Y-123568038D01*
X91190476Y-123568038D02*
X91190476Y-123948990D01*
X91190476Y-123948990D02*
X91238095Y-124044228D01*
X91238095Y-124044228D02*
X91333333Y-124091847D01*
X91333333Y-124091847D02*
X91523809Y-124091847D01*
X91523809Y-124091847D02*
X91619047Y-124044228D01*
X91619047Y-124044228D02*
X91666666Y-123948990D01*
X91666666Y-123948990D02*
X91666666Y-123853752D01*
X91666666Y-123853752D02*
X91190476Y-123758514D01*
X92476190Y-123472800D02*
X92380952Y-123425180D01*
X92380952Y-123425180D02*
X92190476Y-123425180D01*
X92190476Y-123425180D02*
X92095238Y-123472800D01*
X92095238Y-123472800D02*
X92047619Y-123568038D01*
X92047619Y-123568038D02*
X92047619Y-123948990D01*
X92047619Y-123948990D02*
X92095238Y-124044228D01*
X92095238Y-124044228D02*
X92190476Y-124091847D01*
X92190476Y-124091847D02*
X92380952Y-124091847D01*
X92380952Y-124091847D02*
X92476190Y-124044228D01*
X92476190Y-124044228D02*
X92523809Y-123948990D01*
X92523809Y-123948990D02*
X92523809Y-123853752D01*
X92523809Y-123853752D02*
X92047619Y-123758514D01*
X93333333Y-123472800D02*
X93238095Y-123425180D01*
X93238095Y-123425180D02*
X93047619Y-123425180D01*
X93047619Y-123425180D02*
X92952381Y-123472800D01*
X92952381Y-123472800D02*
X92904762Y-123568038D01*
X92904762Y-123568038D02*
X92904762Y-123948990D01*
X92904762Y-123948990D02*
X92952381Y-124044228D01*
X92952381Y-124044228D02*
X93047619Y-124091847D01*
X93047619Y-124091847D02*
X93238095Y-124091847D01*
X93238095Y-124091847D02*
X93333333Y-124044228D01*
X93333333Y-124044228D02*
X93380952Y-123948990D01*
X93380952Y-123948990D02*
X93380952Y-123853752D01*
X93380952Y-123853752D02*
X92904762Y-123758514D01*
X94238095Y-123425180D02*
X94238095Y-124425180D01*
X94238095Y-123472800D02*
X94142857Y-123425180D01*
X94142857Y-123425180D02*
X93952381Y-123425180D01*
X93952381Y-123425180D02*
X93857143Y-123472800D01*
X93857143Y-123472800D02*
X93809524Y-123520419D01*
X93809524Y-123520419D02*
X93761905Y-123615657D01*
X93761905Y-123615657D02*
X93761905Y-123901371D01*
X93761905Y-123901371D02*
X93809524Y-123996609D01*
X93809524Y-123996609D02*
X93857143Y-124044228D01*
X93857143Y-124044228D02*
X93952381Y-124091847D01*
X93952381Y-124091847D02*
X94142857Y-124091847D01*
X94142857Y-124091847D02*
X94238095Y-124044228D01*
X95428572Y-123472800D02*
X95571429Y-123425180D01*
X95571429Y-123425180D02*
X95809524Y-123425180D01*
X95809524Y-123425180D02*
X95904762Y-123472800D01*
X95904762Y-123472800D02*
X95952381Y-123520419D01*
X95952381Y-123520419D02*
X96000000Y-123615657D01*
X96000000Y-123615657D02*
X96000000Y-123710895D01*
X96000000Y-123710895D02*
X95952381Y-123806133D01*
X95952381Y-123806133D02*
X95904762Y-123853752D01*
X95904762Y-123853752D02*
X95809524Y-123901371D01*
X95809524Y-123901371D02*
X95619048Y-123948990D01*
X95619048Y-123948990D02*
X95523810Y-123996609D01*
X95523810Y-123996609D02*
X95476191Y-124044228D01*
X95476191Y-124044228D02*
X95428572Y-124139466D01*
X95428572Y-124139466D02*
X95428572Y-124234704D01*
X95428572Y-124234704D02*
X95476191Y-124329942D01*
X95476191Y-124329942D02*
X95523810Y-124377561D01*
X95523810Y-124377561D02*
X95619048Y-124425180D01*
X95619048Y-124425180D02*
X95857143Y-124425180D01*
X95857143Y-124425180D02*
X96000000Y-124377561D01*
X96285715Y-124091847D02*
X96666667Y-124091847D01*
X96428572Y-124425180D02*
X96428572Y-123568038D01*
X96428572Y-123568038D02*
X96476191Y-123472800D01*
X96476191Y-123472800D02*
X96571429Y-123425180D01*
X96571429Y-123425180D02*
X96666667Y-123425180D01*
X97428572Y-124091847D02*
X97428572Y-123425180D01*
X97000001Y-124091847D02*
X97000001Y-123568038D01*
X97000001Y-123568038D02*
X97047620Y-123472800D01*
X97047620Y-123472800D02*
X97142858Y-123425180D01*
X97142858Y-123425180D02*
X97285715Y-123425180D01*
X97285715Y-123425180D02*
X97380953Y-123472800D01*
X97380953Y-123472800D02*
X97428572Y-123520419D01*
X98333334Y-123425180D02*
X98333334Y-124425180D01*
X98333334Y-123472800D02*
X98238096Y-123425180D01*
X98238096Y-123425180D02*
X98047620Y-123425180D01*
X98047620Y-123425180D02*
X97952382Y-123472800D01*
X97952382Y-123472800D02*
X97904763Y-123520419D01*
X97904763Y-123520419D02*
X97857144Y-123615657D01*
X97857144Y-123615657D02*
X97857144Y-123901371D01*
X97857144Y-123901371D02*
X97904763Y-123996609D01*
X97904763Y-123996609D02*
X97952382Y-124044228D01*
X97952382Y-124044228D02*
X98047620Y-124091847D01*
X98047620Y-124091847D02*
X98238096Y-124091847D01*
X98238096Y-124091847D02*
X98333334Y-124044228D01*
X98809525Y-123425180D02*
X98809525Y-124091847D01*
X98809525Y-124425180D02*
X98761906Y-124377561D01*
X98761906Y-124377561D02*
X98809525Y-124329942D01*
X98809525Y-124329942D02*
X98857144Y-124377561D01*
X98857144Y-124377561D02*
X98809525Y-124425180D01*
X98809525Y-124425180D02*
X98809525Y-124329942D01*
X99428572Y-123425180D02*
X99333334Y-123472800D01*
X99333334Y-123472800D02*
X99285715Y-123520419D01*
X99285715Y-123520419D02*
X99238096Y-123615657D01*
X99238096Y-123615657D02*
X99238096Y-123901371D01*
X99238096Y-123901371D02*
X99285715Y-123996609D01*
X99285715Y-123996609D02*
X99333334Y-124044228D01*
X99333334Y-124044228D02*
X99428572Y-124091847D01*
X99428572Y-124091847D02*
X99571429Y-124091847D01*
X99571429Y-124091847D02*
X99666667Y-124044228D01*
X99666667Y-124044228D02*
X99714286Y-123996609D01*
X99714286Y-123996609D02*
X99761905Y-123901371D01*
X99761905Y-123901371D02*
X99761905Y-123615657D01*
X99761905Y-123615657D02*
X99714286Y-123520419D01*
X99714286Y-123520419D02*
X99666667Y-123472800D01*
X99666667Y-123472800D02*
X99571429Y-123425180D01*
X99571429Y-123425180D02*
X99428572Y-123425180D01*
X93476191Y-122425180D02*
X94142857Y-121425180D01*
X94142857Y-122425180D02*
X93476191Y-121425180D01*
X94523810Y-121425180D02*
X94523810Y-122425180D01*
X94952381Y-121710895D02*
X95428571Y-121710895D01*
X94857143Y-121425180D02*
X95190476Y-122425180D01*
X95190476Y-122425180D02*
X95523809Y-121425180D01*
X96047619Y-122425180D02*
X96238095Y-122425180D01*
X96238095Y-122425180D02*
X96333333Y-122377561D01*
X96333333Y-122377561D02*
X96428571Y-122282323D01*
X96428571Y-122282323D02*
X96476190Y-122091847D01*
X96476190Y-122091847D02*
X96476190Y-121758514D01*
X96476190Y-121758514D02*
X96428571Y-121568038D01*
X96428571Y-121568038D02*
X96333333Y-121472800D01*
X96333333Y-121472800D02*
X96238095Y-121425180D01*
X96238095Y-121425180D02*
X96047619Y-121425180D01*
X96047619Y-121425180D02*
X95952381Y-121472800D01*
X95952381Y-121472800D02*
X95857143Y-121568038D01*
X95857143Y-121568038D02*
X95809524Y-121758514D01*
X95809524Y-121758514D02*
X95809524Y-122091847D01*
X95809524Y-122091847D02*
X95857143Y-122282323D01*
X95857143Y-122282323D02*
X95952381Y-122377561D01*
X95952381Y-122377561D02*
X96047619Y-122425180D01*
D12*
%TO.C,U2*%
X86112285Y-130941705D02*
X86115333Y-130990473D01*
X86119397Y-131039494D01*
X86112285Y-130941705D01*
X103889492Y-113858426D02*
X103887713Y-113809150D01*
X103884665Y-113760382D01*
X103880601Y-113711361D01*
X103875268Y-113662593D01*
X103868664Y-113613825D01*
X103861044Y-113565310D01*
X103852153Y-113517050D01*
X103842248Y-113469045D01*
X103889492Y-113858426D01*
D13*
X84127000Y-131180000D02*
G75*
G02*
X83873000Y-131180000I-127000J0D01*
G01*
X83873000Y-131180000D02*
G75*
G02*
X84127000Y-131180000I127000J0D01*
G01*
D14*
X88100000Y-132880000D02*
G75*
G02*
X86100000Y-130880000I44612J2044612D01*
G01*
X86100000Y-113880000D02*
G75*
G02*
X88100000Y-111880000I2044857J-44857D01*
G01*
X103900000Y-130880000D02*
G75*
G02*
X101900000Y-132880000I-2044610J44610D01*
G01*
X101900000Y-111880000D02*
G75*
G02*
X103900000Y-113880000I0J-2000000D01*
G01*
D15*
X88100000Y-111880000D02*
X101900000Y-111880000D01*
X90500000Y-126950730D02*
X90500000Y-134304030D01*
X101900000Y-132879090D02*
X88100000Y-132879090D01*
X90500000Y-134304030D02*
X99500000Y-134304030D01*
X86100000Y-130880000D02*
X86100000Y-113880000D01*
X99500000Y-134304030D02*
X99500000Y-126950730D01*
X99500000Y-126950730D02*
X90500000Y-126950730D01*
X103900000Y-113880000D02*
X103900000Y-130880000D01*
%TD*%
M02*
