M48
; DRILL file KiCad 10.0.3 date 2026-06-07T12:23:41
; FORMAT={-:-/ absolute / metric / decimal}
; #@! TF.CreationDate,2026-06-07T12:23:41-04:00
; #@! TF.GenerationSoftware,Kicad,Pcbnew,10.0.3
; #@! TF.FileFunction,Plated,1,2,PTH
FMAT,2
METRIC
; #@! TA.AperFunction,Plated,PTH,ViaDrill
T1C0.300
; #@! TA.AperFunction,Plated,PTH,ComponentDrill
T2C0.800
; #@! TA.AperFunction,Plated,PTH,ComponentDrill
T3C1.000
; #@! TA.AperFunction,Plated,PTH,ComponentDrill
T4C1.500
%
G90
G05
T1
X59.5Y-65.5
X59.5Y-88.0
X59.5Y-94.0
X60.0Y-53.5
X78.5Y-87.5
X79.0Y-54.5
X79.0Y-61.5
X82.5Y-124.5
X89.5Y-130.0
X89.644Y-128.01
X92.04Y-118.0
X93.5Y-118.0
X94.0Y-70.5
X97.5Y-52.5
X97.5Y-66.0
X98.0Y-84.0
X106.5Y-121.59
X107.5Y-119.0
X117.0Y-53.0
X117.0Y-64.0
X122.5Y-108.0
X125.5Y-113.5
T2
X52.38Y-127.5
X53.19Y-57.15
X53.69Y-90.0
X60.0Y-127.5
X60.81Y-57.15
X61.31Y-90.0
X71.19Y-90.0
X73.69Y-127.5
X76.2Y-57.15
X78.81Y-90.0
X81.31Y-127.5
X83.82Y-57.15
X91.19Y-57.5
X91.19Y-90.0
X91.19Y-127.5
X98.81Y-57.5
X98.81Y-90.0
X98.81Y-127.5
X111.19Y-57.5
X111.19Y-90.0
X113.69Y-124.4
X118.81Y-57.5
X118.81Y-90.0
X121.31Y-124.4
T3
X87.375Y-114.76
X87.375Y-117.3
X87.375Y-119.84
X87.375Y-122.38
X87.375Y-124.92
X87.375Y-127.46
X87.375Y-130.0
X102.625Y-114.76
X102.625Y-117.3
X102.625Y-119.84
X102.625Y-122.38
X102.625Y-124.92
X102.625Y-127.46
X102.625Y-130.0
X108.75Y-111.0
X108.75Y-113.5
X108.75Y-116.0
X123.25Y-111.0
X123.25Y-116.0
X127.0Y-109.69
X127.0Y-112.23
X127.0Y-114.77
X127.0Y-117.31
T4
X53.34Y-42.36
X53.34Y-73.66
X53.34Y-111.76
X59.69Y-39.82
X59.69Y-71.12
X59.69Y-109.22
X72.39Y-42.36
X72.39Y-73.66
X72.39Y-111.76
X78.74Y-39.82
X78.74Y-71.12
X78.74Y-109.22
X91.44Y-42.36
X91.44Y-73.66
X91.44Y-111.76
X97.79Y-39.82
X97.79Y-71.12
X97.79Y-109.22
X110.49Y-42.36
X110.49Y-73.66
X116.84Y-39.82
X116.84Y-71.12
T4
G00X115.6Y-107.9
M15
G01X116.9Y-107.9
M16
G05
G00X115.6Y-119.1
M15
G01X116.9Y-119.1
M16
G05
M30
