%TF.GenerationSoftware,KiCad,Pcbnew,10.0.3*%
%TF.CreationDate,2026-06-07T12:21:17-04:00*%
%TF.ProjectId,Hackpad,4861636b-7061-4642-9e6b-696361645f70,rev?*%
%TF.SameCoordinates,Original*%
%TF.FileFunction,Copper,L1,Top*%
%TF.FilePolarity,Positive*%
%FSLAX46Y46*%
G04 Gerber Fmt 4.6, Leading zero omitted, Abs format (unit mm)*
G04 Created by KiCad (PCBNEW 10.0.3) date 2026-06-07 12:21:17*
%MOMM*%
%LPD*%
G01*
G04 APERTURE LIST*
G04 Aperture macros list*
%AMRoundRect*
0 Rectangle with rounded corners*
0 $1 Rounding radius*
0 $2 $3 $4 $5 $6 $7 $8 $9 X,Y pos of 4 corners*
0 Add a 4 corners polygon primitive as box body*
4,1,4,$2,$3,$4,$5,$6,$7,$8,$9,$2,$3,0*
0 Add four circle primitives for the rounded corners*
1,1,$1+$1,$2,$3*
1,1,$1+$1,$4,$5*
1,1,$1+$1,$6,$7*
1,1,$1+$1,$8,$9*
0 Add four rect primitives between the rounded corners*
20,1,$1+$1,$2,$3,$4,$5,0*
20,1,$1+$1,$4,$5,$6,$7,0*
20,1,$1+$1,$6,$7,$8,$9,0*
20,1,$1+$1,$8,$9,$2,$3,0*%
G04 Aperture macros list end*
%TA.AperFunction,ComponentPad*%
%ADD10R,1.700000X1.700000*%
%TD*%
%TA.AperFunction,ComponentPad*%
%ADD11C,1.700000*%
%TD*%
%TA.AperFunction,ComponentPad*%
%ADD12C,2.200000*%
%TD*%
%TA.AperFunction,ComponentPad*%
%ADD13C,1.600000*%
%TD*%
%TA.AperFunction,ComponentPad*%
%ADD14RoundRect,0.250000X-0.550000X-0.550000X0.550000X-0.550000X0.550000X0.550000X-0.550000X0.550000X0*%
%TD*%
%TA.AperFunction,ComponentPad*%
%ADD15O,3.700000X1.700000*%
%TD*%
%TA.AperFunction,ComponentPad*%
%ADD16O,3.600000X1.700000*%
%TD*%
%TA.AperFunction,ComponentPad*%
%ADD17R,3.500000X1.700000*%
%TD*%
%TA.AperFunction,ComponentPad*%
%ADD18R,2.000000X2.000000*%
%TD*%
%TA.AperFunction,ComponentPad*%
%ADD19C,2.000000*%
%TD*%
%TA.AperFunction,ComponentPad*%
%ADD20R,3.200000X2.000000*%
%TD*%
%TA.AperFunction,ViaPad*%
%ADD21C,0.600000*%
%TD*%
%TA.AperFunction,Conductor*%
%ADD22C,0.200000*%
%TD*%
G04 APERTURE END LIST*
D10*
%TO.P,J1,1,Pin_1_1*%
%TO.N,Net-(J1-Pin_1)*%
X127000000Y-109690000D03*
D11*
%TO.P,J1,2,Pin_2_2*%
%TO.N,Net-(J1-Pin_2)*%
X127000000Y-112230000D03*
%TO.P,J1,3,Pin_3_3*%
%TO.N,Net-(J1-Pin_3)*%
X127000000Y-114770000D03*
%TO.P,J1,4,Pin_4_4*%
%TO.N,Net-(J1-Pin_4)*%
X127000000Y-117310000D03*
%TD*%
D12*
%TO.P,SW6,2,2_2*%
%TO.N,Net-(D9-A)*%
X53340000Y-111760000D03*
%TO.P,SW6,1,1_1*%
%TO.N,Net-(U2-PA11_A3_D3)*%
X59690000Y-109220000D03*
%TD*%
D13*
%TO.P,D1,2,A_2*%
%TO.N,Net-(D1-A)*%
X60810000Y-57150000D03*
D14*
%TO.P,D1,1,K_1*%
%TO.N,Net-(D1-K)*%
X53190000Y-57150000D03*
%TD*%
D13*
%TO.P,D6,2,A_2*%
%TO.N,Net-(D6-A)*%
X78810000Y-90000000D03*
D14*
%TO.P,D6,1,K_1*%
%TO.N,Net-(D5-K)*%
X71190000Y-90000000D03*
%TD*%
D13*
%TO.P,D2,2,A_2*%
%TO.N,Net-(D2-A)*%
X83820000Y-57150000D03*
D14*
%TO.P,D2,1,K_1*%
%TO.N,Net-(D1-K)*%
X76200000Y-57150000D03*
%TD*%
D13*
%TO.P,D3,2,A_2*%
%TO.N,Net-(D3-A)*%
X98810000Y-57500000D03*
D14*
%TO.P,D3,1,K_1*%
%TO.N,Net-(D1-K)*%
X91190000Y-57500000D03*
%TD*%
D13*
%TO.P,D4,2,A_2*%
%TO.N,Net-(D4-A)*%
X118810000Y-57500000D03*
D14*
%TO.P,D4,1,K_1*%
%TO.N,Net-(D1-K)*%
X111190000Y-57500000D03*
%TD*%
D13*
%TO.P,D5,2,A_2*%
%TO.N,Net-(D5-A)*%
X61310000Y-90000000D03*
D14*
%TO.P,D5,1,K_1*%
%TO.N,Net-(D5-K)*%
X53690000Y-90000000D03*
%TD*%
D13*
%TO.P,D8,2,A_2*%
%TO.N,Net-(D8-A)*%
X118810000Y-90000000D03*
D14*
%TO.P,D8,1,K_1*%
%TO.N,Net-(D5-K)*%
X111190000Y-90000000D03*
%TD*%
D13*
%TO.P,D7,2,A_2*%
%TO.N,Net-(D7-A)*%
X98810000Y-90000000D03*
D14*
%TO.P,D7,1,K_1*%
%TO.N,Net-(D5-K)*%
X91190000Y-90000000D03*
%TD*%
D13*
%TO.P,D9,2,A_2*%
%TO.N,Net-(D9-A)*%
X60000000Y-127500000D03*
D14*
%TO.P,D9,1,K_1*%
%TO.N,Net-(D10-K)*%
X52380000Y-127500000D03*
%TD*%
D15*
%TO.P,U2,14,5V_14*%
%TO.N,unconnected-(U2-5V-Pad14)*%
X103625000Y-130000000D03*
%TO.P,U2,13,GND_13*%
%TO.N,Net-(J1-Pin_1)*%
X103625000Y-127460000D03*
%TO.P,U2,12,3V3_12*%
%TO.N,Net-(J1-Pin_2)*%
X103625000Y-124920000D03*
%TO.P,U2,11,PA6_A10_D10_MOSI_11*%
%TO.N,Net-(U2-PA6_A10_D10_MOSI)*%
X103625000Y-122380000D03*
D16*
%TO.P,U2,10,PA5_A9_D9_MISO_10*%
%TO.N,Net-(U2-PA5_A9_D9_MISO)*%
X103625000Y-119840000D03*
%TO.P,U2,9,PA7_A8_D8_SCK_9*%
%TO.N,Net-(U2-PA7_A8_D8_SCK)*%
X103625000Y-117300000D03*
%TO.P,U2,8,PB09_A7_D7_RX_8*%
%TO.N,Net-(U2-PB09_A7_D7_RX)*%
X103625000Y-114760000D03*
%TO.P,U2,7,PB08_A6_D6_TX_7*%
%TO.N,Net-(U2-PB08_A6_D6_TX)*%
X86375000Y-114760000D03*
%TO.P,U2,6,PA9_A5_D5_SCL_6*%
%TO.N,Net-(J1-Pin_3)*%
X86375000Y-117300000D03*
%TO.P,U2,5,PA8_A4_D4_SDA_5*%
%TO.N,Net-(J1-Pin_4)*%
X86375000Y-119840000D03*
%TO.P,U2,4,PA11_A3_D3_4*%
%TO.N,Net-(U2-PA11_A3_D3)*%
X86375000Y-122380000D03*
%TO.P,U2,3,PA10_A2_D2_3*%
%TO.N,Net-(D10-K)*%
X86375000Y-124920000D03*
%TO.P,U2,2,PA4_A1_D1_2*%
%TO.N,Net-(D5-K)*%
X86375000Y-127460000D03*
D17*
%TO.P,U2,1,PA02_A0_D0_1*%
%TO.N,Net-(D1-K)*%
X86375000Y-130000000D03*
%TD*%
D18*
%TO.P,SW17,A,A_A*%
%TO.N,Net-(U2-PA7_A8_D8_SCK)*%
X108750000Y-111000000D03*
D19*
%TO.P,SW17,B,B_B*%
%TO.N,Net-(U2-PA5_A9_D9_MISO)*%
X108750000Y-116000000D03*
%TO.P,SW17,C,C_C*%
%TO.N,Net-(J1-Pin_1)*%
X108750000Y-113500000D03*
D20*
%TO.P,SW17,MP*%
%TO.N,N/C*%
X116250000Y-107900000D03*
X116250000Y-119100000D03*
D19*
%TO.P,SW17,S1,S1_S1*%
%TO.N,Net-(U2-PA6_A10_D10_MOSI)*%
X123250000Y-116000000D03*
%TO.P,SW17,S2,S2_S2*%
%TO.N,Net-(D12-A)*%
X123250000Y-111000000D03*
%TD*%
D12*
%TO.P,SW12,1,1_1*%
%TO.N,Net-(U2-PA6_A10_D10_MOSI)*%
X116840000Y-39820000D03*
%TO.P,SW12,2,2_2*%
%TO.N,Net-(D4-A)*%
X110490000Y-42360000D03*
%TD*%
%TO.P,SW11,1,1_1*%
%TO.N,Net-(U2-PA6_A10_D10_MOSI)*%
X116840000Y-71120000D03*
%TO.P,SW11,2,2_2*%
%TO.N,Net-(D8-A)*%
X110490000Y-73660000D03*
%TD*%
%TO.P,SW10,1,1_1*%
%TO.N,Net-(U2-PB09_A7_D7_RX)*%
X97790000Y-71120000D03*
%TO.P,SW10,2,2_2*%
%TO.N,Net-(D7-A)*%
X91440000Y-73660000D03*
%TD*%
%TO.P,SW8,1,1_1*%
%TO.N,Net-(U2-PB09_A7_D7_RX)*%
X97790000Y-109220000D03*
%TO.P,SW8,2,2_2*%
%TO.N,Net-(D11-A)*%
X91440000Y-111760000D03*
%TD*%
%TO.P,SW7,1,1_1*%
%TO.N,Net-(U2-PB08_A6_D6_TX)*%
X78740000Y-109220000D03*
%TO.P,SW7,2,2_2*%
%TO.N,Net-(D10-A)*%
X72390000Y-111760000D03*
%TD*%
%TO.P,SW5,1,1_1*%
%TO.N,Net-(U2-PB08_A6_D6_TX)*%
X78740000Y-71120000D03*
%TO.P,SW5,2,2_2*%
%TO.N,Net-(D6-A)*%
X72390000Y-73660000D03*
%TD*%
%TO.P,SW4,1,1_1*%
%TO.N,Net-(U2-PA11_A3_D3)*%
X59690000Y-71120000D03*
%TO.P,SW4,2,2_2*%
%TO.N,Net-(D5-A)*%
X53340000Y-73660000D03*
%TD*%
%TO.P,SW3,1,1_1*%
%TO.N,Net-(U2-PB09_A7_D7_RX)*%
X97790000Y-39820000D03*
%TO.P,SW3,2,2_2*%
%TO.N,Net-(D3-A)*%
X91440000Y-42360000D03*
%TD*%
%TO.P,SW2,1,1_1*%
%TO.N,Net-(U2-PB08_A6_D6_TX)*%
X78740000Y-39820000D03*
%TO.P,SW2,2,2_2*%
%TO.N,Net-(D2-A)*%
X72390000Y-42360000D03*
%TD*%
%TO.P,SW1,1,1_1*%
%TO.N,Net-(U2-PA11_A3_D3)*%
X59690000Y-39820000D03*
%TO.P,SW1,2,2_2*%
%TO.N,Net-(D1-A)*%
X53340000Y-42360000D03*
%TD*%
D14*
%TO.P,D12,1,K_1*%
%TO.N,Net-(D10-K)*%
X113690000Y-124400000D03*
D13*
%TO.P,D12,2,A_2*%
%TO.N,Net-(D12-A)*%
X121310000Y-124400000D03*
%TD*%
D14*
%TO.P,D11,1,K_1*%
%TO.N,Net-(D10-K)*%
X91190000Y-127500000D03*
D13*
%TO.P,D11,2,A_2*%
%TO.N,Net-(D11-A)*%
X98810000Y-127500000D03*
%TD*%
D14*
%TO.P,D10,1,K_1*%
%TO.N,Net-(D10-K)*%
X73690000Y-127500000D03*
D13*
%TO.P,D10,2,A_2*%
%TO.N,Net-(D10-A)*%
X81310000Y-127500000D03*
%TD*%
D21*
%TO.N,Net-(D5-K)*%
X82500000Y-124500000D03*
%TO.N,Net-(U2-PA5_A9_D9_MISO)*%
X107500000Y-119000000D03*
%TO.N,Net-(J1-Pin_1)*%
X106500000Y-121590000D03*
X122500000Y-108000000D03*
%TO.N,Net-(J1-Pin_4)*%
X89643783Y-128010000D03*
X89500000Y-130000000D03*
%TO.N,Net-(J1-Pin_3)*%
X92040000Y-118000000D03*
X93500000Y-118000000D03*
X125500000Y-113500000D03*
%TO.N,Net-(D1-K)*%
X94000000Y-70500000D03*
%TO.N,Net-(U2-PB08_A6_D6_TX)*%
X78500000Y-87500000D03*
%TO.N,Net-(U2-PB09_A7_D7_RX)*%
X98000000Y-84000000D03*
%TO.N,Net-(U2-PA6_A10_D10_MOSI)*%
X117000000Y-64000000D03*
X117000000Y-53000000D03*
%TO.N,Net-(U2-PB09_A7_D7_RX)*%
X97500000Y-66000000D03*
X97500000Y-52500000D03*
%TO.N,Net-(U2-PB08_A6_D6_TX)*%
X79000000Y-61500000D03*
X79000000Y-54500000D03*
%TO.N,Net-(U2-PA11_A3_D3)*%
X59500000Y-65500000D03*
X60000000Y-53500000D03*
X59500000Y-88000000D03*
X59500000Y-94000000D03*
%TD*%
%TO.N,Net-(D12-A)*%
D22*
X128150000Y-109983654D02*
X127476346Y-109310000D01*
X123340000Y-109310000D02*
X123250000Y-109400000D01*
X128150000Y-117560000D02*
X128150000Y-109983654D01*
X127476346Y-109310000D02*
X123340000Y-109310000D01*
X121310000Y-124400000D02*
X128150000Y-117560000D01*
%TO.N,Net-(D5-K)*%
X85460000Y-127460000D02*
X82500000Y-124500000D01*
X87375000Y-127460000D02*
X85460000Y-127460000D01*
%TO.N,Net-(U2-PB08_A6_D6_TX)*%
X84280000Y-114760000D02*
X78740000Y-109220000D01*
X87375000Y-114760000D02*
X84280000Y-114760000D01*
%TO.N,Net-(U2-PA11_A3_D3)*%
X71829899Y-109220000D02*
X59690000Y-109220000D01*
X73790000Y-111180101D02*
X71829899Y-109220000D01*
X73790000Y-119290000D02*
X73790000Y-111180101D01*
X76880000Y-122380000D02*
X73790000Y-119290000D01*
X87375000Y-122380000D02*
X76880000Y-122380000D01*
%TO.N,Net-(D10-K)*%
X90080000Y-128610000D02*
X91190000Y-127500000D01*
X89395254Y-128610000D02*
X90080000Y-128610000D01*
X89043783Y-128258529D02*
X89395254Y-128610000D01*
X89043783Y-126588783D02*
X89043783Y-128258529D01*
X87375000Y-124920000D02*
X89043783Y-126588783D01*
%TO.N,Net-(U2-PA7_A8_D8_SCK)*%
X104700000Y-117300000D02*
X102625000Y-117300000D01*
X105725000Y-112425000D02*
X105725000Y-116275000D01*
X105725000Y-116275000D02*
X104700000Y-117300000D01*
X108750000Y-109400000D02*
X105725000Y-112425000D01*
%TO.N,Net-(U2-PA5_A9_D9_MISO)*%
X107500000Y-115650000D02*
X107500000Y-119000000D01*
X108750000Y-114400000D02*
X107500000Y-115650000D01*
%TO.N,Net-(J1-Pin_1)*%
X106500000Y-114150000D02*
X106500000Y-121590000D01*
X108750000Y-111900000D02*
X106500000Y-114150000D01*
X122580000Y-107920000D02*
X122500000Y-108000000D01*
X127000000Y-107920000D02*
X122580000Y-107920000D01*
%TO.N,Net-(J1-Pin_4)*%
X89643783Y-122108783D02*
X87375000Y-119840000D01*
X89643783Y-128010000D02*
X89643783Y-122108783D01*
X90650000Y-131150000D02*
X89500000Y-130000000D01*
X111390000Y-131150000D02*
X90650000Y-131150000D01*
X127000000Y-115540000D02*
X111390000Y-131150000D01*
%TO.N,Net-(J1-Pin_3)*%
X93500000Y-118000000D02*
X92040000Y-118000000D01*
X126000000Y-113000000D02*
X125500000Y-113500000D01*
X127000000Y-113000000D02*
X126000000Y-113000000D01*
%TO.N,Net-(J1-Pin_2)*%
X116188478Y-123300000D02*
X105331346Y-123300000D01*
X124550000Y-114938478D02*
X116188478Y-123300000D01*
X105331346Y-123300000D02*
X103711346Y-124920000D01*
X124550000Y-112910000D02*
X124550000Y-114938478D01*
X127000000Y-110460000D02*
X124550000Y-112910000D01*
X103711346Y-124920000D02*
X102625000Y-124920000D01*
%TO.N,Net-(D9-A)*%
X51595256Y-128600000D02*
X58900000Y-128600000D01*
X51280000Y-128284744D02*
X51595256Y-128600000D01*
X51280000Y-126715256D02*
X51280000Y-128284744D01*
X58900000Y-128600000D02*
X60000000Y-127500000D01*
X53340000Y-124655256D02*
X51280000Y-126715256D01*
X53340000Y-111760000D02*
X53340000Y-124655256D01*
%TO.N,Net-(D10-A)*%
X72390000Y-118580000D02*
X81310000Y-127500000D01*
X72390000Y-111760000D02*
X72390000Y-118580000D01*
%TO.N,Net-(U2-PB09_A7_D7_RX)*%
X102625000Y-114055000D02*
X102625000Y-114760000D01*
X97790000Y-109220000D02*
X102625000Y-114055000D01*
%TO.N,Net-(D11-A)*%
X91440000Y-120130000D02*
X98810000Y-127500000D01*
X91440000Y-111760000D02*
X91440000Y-120130000D01*
%TO.N,Net-(D1-K)*%
X94690000Y-69810000D02*
X94000000Y-70500000D01*
X94690000Y-61000000D02*
X94690000Y-69810000D01*
%TO.N,Net-(D1-A)*%
X53340000Y-49680000D02*
X60810000Y-57150000D01*
X53340000Y-42360000D02*
X53340000Y-49680000D01*
%TO.N,Net-(D2-A)*%
X80650000Y-57150000D02*
X83820000Y-57150000D01*
X72390000Y-42360000D02*
X72390000Y-48890000D01*
X72390000Y-48890000D02*
X80650000Y-57150000D01*
%TO.N,Net-(D3-A)*%
X91440000Y-50130000D02*
X98810000Y-57500000D01*
X91440000Y-42360000D02*
X91440000Y-50130000D01*
%TO.N,Net-(D4-A)*%
X110490000Y-49180000D02*
X118810000Y-57500000D01*
X110490000Y-42360000D02*
X110490000Y-49180000D01*
%TO.N,Net-(D8-A)*%
X110490000Y-81680000D02*
X118810000Y-90000000D01*
X110490000Y-73660000D02*
X110490000Y-81680000D01*
%TO.N,Net-(D7-A)*%
X91440000Y-82630000D02*
X98810000Y-90000000D01*
X91440000Y-73660000D02*
X91440000Y-82630000D01*
%TO.N,Net-(D6-A)*%
X72390000Y-73660000D02*
X72390000Y-83580000D01*
X72390000Y-83580000D02*
X78810000Y-90000000D01*
%TO.N,Net-(D5-A)*%
X60178630Y-90000000D02*
X61310000Y-90000000D01*
X53340000Y-83161370D02*
X60178630Y-90000000D01*
X53340000Y-73660000D02*
X53340000Y-83161370D01*
%TO.N,Net-(U2-PB08_A6_D6_TX)*%
X78740000Y-87260000D02*
X78500000Y-87500000D01*
X78740000Y-71120000D02*
X78740000Y-87260000D01*
%TO.N,Net-(U2-PB09_A7_D7_RX)*%
X97790000Y-83790000D02*
X98000000Y-84000000D01*
X97790000Y-71120000D02*
X97790000Y-83790000D01*
%TO.N,Net-(U2-PA6_A10_D10_MOSI)*%
X115270000Y-122380000D02*
X102625000Y-122380000D01*
X123250000Y-114400000D02*
X115270000Y-122380000D01*
X121000000Y-112150000D02*
X123250000Y-114400000D01*
X116840000Y-71120000D02*
X121000000Y-75280000D01*
X121000000Y-75280000D02*
X121000000Y-112150000D01*
X116840000Y-65160000D02*
X116840000Y-71120000D01*
X117000000Y-65000000D02*
X116840000Y-65160000D01*
X117000000Y-64000000D02*
X117000000Y-65000000D01*
X116840000Y-52840000D02*
X117000000Y-53000000D01*
X116840000Y-39820000D02*
X116840000Y-52840000D01*
%TO.N,Net-(U2-PB09_A7_D7_RX)*%
X97790000Y-66290000D02*
X97790000Y-71120000D01*
X97500000Y-66000000D02*
X97790000Y-66290000D01*
X97790000Y-52210000D02*
X97500000Y-52500000D01*
X97790000Y-39820000D02*
X97790000Y-52210000D01*
%TO.N,Net-(U2-PB08_A6_D6_TX)*%
X78740000Y-61760000D02*
X78740000Y-71120000D01*
X79000000Y-61500000D02*
X78740000Y-61760000D01*
X78740000Y-54240000D02*
X79000000Y-54500000D01*
X78740000Y-39820000D02*
X78740000Y-54240000D01*
%TO.N,Net-(U2-PA11_A3_D3)*%
X59690000Y-65690000D02*
X59690000Y-71120000D01*
X59500000Y-65500000D02*
X59690000Y-65690000D01*
X59690000Y-53190000D02*
X60000000Y-53500000D01*
X59690000Y-39820000D02*
X59690000Y-53190000D01*
X59690000Y-95190000D02*
X59690000Y-109220000D01*
X59500000Y-95000000D02*
X59690000Y-95190000D01*
X59500000Y-94000000D02*
X59500000Y-95000000D01*
X59690000Y-87810000D02*
X59500000Y-88000000D01*
X59690000Y-71120000D02*
X59690000Y-87810000D01*
%TO.N,Net-(D10-K)*%
X109240000Y-128850000D02*
X113690000Y-124400000D01*
X91190000Y-127500000D02*
X92540000Y-128850000D01*
X92540000Y-128850000D02*
X109240000Y-128850000D01*
X74800000Y-128610000D02*
X90080000Y-128610000D01*
X73690000Y-127500000D02*
X74800000Y-128610000D01*
X72590000Y-126400000D02*
X73690000Y-127500000D01*
X53480000Y-126400000D02*
X72590000Y-126400000D01*
X52380000Y-127500000D02*
X53480000Y-126400000D01*
%TO.N,Net-(D5-K)*%
X92290000Y-91100000D02*
X110090000Y-91100000D01*
X110090000Y-91100000D02*
X111190000Y-90000000D01*
X91190000Y-90000000D02*
X92290000Y-91100000D01*
X90090000Y-91100000D02*
X91190000Y-90000000D01*
X72290000Y-91100000D02*
X90090000Y-91100000D01*
X71190000Y-90000000D02*
X72290000Y-91100000D01*
X70090000Y-91100000D02*
X71190000Y-90000000D01*
X54790000Y-91100000D02*
X70090000Y-91100000D01*
X53690000Y-90000000D02*
X54790000Y-91100000D01*
%TO.N,Net-(D1-K)*%
X94690000Y-61000000D02*
X107690000Y-61000000D01*
X91190000Y-57500000D02*
X94690000Y-61000000D01*
X107690000Y-61000000D02*
X111190000Y-57500000D01*
X90440000Y-58250000D02*
X91190000Y-57500000D01*
X77300000Y-58250000D02*
X90440000Y-58250000D01*
X76200000Y-57150000D02*
X77300000Y-58250000D01*
X54290000Y-58250000D02*
X75100000Y-58250000D01*
X53190000Y-57150000D02*
X54290000Y-58250000D01*
X75100000Y-58250000D02*
X76200000Y-57150000D01*
%TD*%
M02*
