%TF.GenerationSoftware,KiCad,Pcbnew,10.0.3*%
%TF.CreationDate,2026-06-07T12:21:17-04:00*%
%TF.ProjectId,Hackpad,4861636b-7061-4642-9e6b-696361645f70,rev?*%
%TF.SameCoordinates,Original*%
%TF.FileFunction,Copper,L2,Bot*%
%TF.FilePolarity,Positive*%
%FSLAX46Y46*%
G04 Gerber Fmt 4.6, Leading zero omitted, Abs format (unit mm)*
G04 Created by KiCad (PCBNEW 10.0.3) date 2026-06-07 12:21:17*
%MOMM*%
%LPD*%
G01*
G04 APERTURE LIST*
G04 Aperture macros list*
%AMRoundRect*
0 Rectangle with rounded corners*
0 $1 Rounding radius*
0 $2 $3 $4 $5 $6 $7 $8 $9 X,Y pos of 4 corners*
0 Add a 4 corners polygon primitive as box body*
4,1,4,$2,$3,$4,$5,$6,$7,$8,$9,$2,$3,0*
0 Add four circle primitives for the rounded corners*
1,1,$1+$1,$2,$3*
1,1,$1+$1,$4,$5*
1,1,$1+$1,$6,$7*
1,1,$1+$1,$8,$9*
0 Add four rect primitives between the rounded corners*
20,1,$1+$1,$2,$3,$4,$5,0*
20,1,$1+$1,$4,$5,$6,$7,0*
20,1,$1+$1,$6,$7,$8,$9,0*
20,1,$1+$1,$8,$9,$2,$3,0*%
G04 Aperture macros list end*
%TA.AperFunction,ComponentPad*%
%ADD10R,1.700000X1.700000*%
%TD*%
%TA.AperFunction,ComponentPad*%
%ADD11C,1.700000*%
%TD*%
%TA.AperFunction,ComponentPad*%
%ADD12C,2.200000*%
%TD*%
%TA.AperFunction,ComponentPad*%
%ADD13C,1.600000*%
%TD*%
%TA.AperFunction,ComponentPad*%
%ADD14RoundRect,0.250000X-0.550000X-0.550000X0.550000X-0.550000X0.550000X0.550000X-0.550000X0.550000X0*%
%TD*%
%TA.AperFunction,ComponentPad*%
%ADD15O,3.700000X1.700000*%
%TD*%
%TA.AperFunction,ComponentPad*%
%ADD16O,3.600000X1.700000*%
%TD*%
%TA.AperFunction,ComponentPad*%
%ADD17R,3.500000X1.700000*%
%TD*%
%TA.AperFunction,ComponentPad*%
%ADD18R,2.000000X2.000000*%
%TD*%
%TA.AperFunction,ComponentPad*%
%ADD19C,2.000000*%
%TD*%
%TA.AperFunction,ComponentPad*%
%ADD20R,3.200000X2.000000*%
%TD*%
%TA.AperFunction,ViaPad*%
%ADD21C,0.600000*%
%TD*%
%TA.AperFunction,Conductor*%
%ADD22C,0.200000*%
%TD*%
G04 APERTURE END LIST*
D10*
%TO.P,J1,1,Pin_1_1*%
%TO.N,Net-(J1-Pin_1)*%
X127000000Y-109690000D03*
D11*
%TO.P,J1,2,Pin_2_2*%
%TO.N,Net-(J1-Pin_2)*%
X127000000Y-112230000D03*
%TO.P,J1,3,Pin_3_3*%
%TO.N,Net-(J1-Pin_3)*%
X127000000Y-114770000D03*
%TO.P,J1,4,Pin_4_4*%
%TO.N,Net-(J1-Pin_4)*%
X127000000Y-117310000D03*
%TD*%
D12*
%TO.P,SW6,2,2_2*%
%TO.N,Net-(D9-A)*%
X53340000Y-111760000D03*
%TO.P,SW6,1,1_1*%
%TO.N,Net-(U2-PA11_A3_D3)*%
X59690000Y-109220000D03*
%TD*%
D13*
%TO.P,D1,2,A_2*%
%TO.N,Net-(D1-A)*%
X60810000Y-57150000D03*
D14*
%TO.P,D1,1,K_1*%
%TO.N,Net-(D1-K)*%
X53190000Y-57150000D03*
%TD*%
D13*
%TO.P,D6,2,A_2*%
%TO.N,Net-(D6-A)*%
X78810000Y-90000000D03*
D14*
%TO.P,D6,1,K_1*%
%TO.N,Net-(D5-K)*%
X71190000Y-90000000D03*
%TD*%
D13*
%TO.P,D2,2,A_2*%
%TO.N,Net-(D2-A)*%
X83820000Y-57150000D03*
D14*
%TO.P,D2,1,K_1*%
%TO.N,Net-(D1-K)*%
X76200000Y-57150000D03*
%TD*%
D13*
%TO.P,D3,2,A_2*%
%TO.N,Net-(D3-A)*%
X98810000Y-57500000D03*
D14*
%TO.P,D3,1,K_1*%
%TO.N,Net-(D1-K)*%
X91190000Y-57500000D03*
%TD*%
D13*
%TO.P,D4,2,A_2*%
%TO.N,Net-(D4-A)*%
X118810000Y-57500000D03*
D14*
%TO.P,D4,1,K_1*%
%TO.N,Net-(D1-K)*%
X111190000Y-57500000D03*
%TD*%
D13*
%TO.P,D5,2,A_2*%
%TO.N,Net-(D5-A)*%
X61310000Y-90000000D03*
D14*
%TO.P,D5,1,K_1*%
%TO.N,Net-(D5-K)*%
X53690000Y-90000000D03*
%TD*%
D13*
%TO.P,D8,2,A_2*%
%TO.N,Net-(D8-A)*%
X118810000Y-90000000D03*
D14*
%TO.P,D8,1,K_1*%
%TO.N,Net-(D5-K)*%
X111190000Y-90000000D03*
%TD*%
D13*
%TO.P,D7,2,A_2*%
%TO.N,Net-(D7-A)*%
X98810000Y-90000000D03*
D14*
%TO.P,D7,1,K_1*%
%TO.N,Net-(D5-K)*%
X91190000Y-90000000D03*
%TD*%
D13*
%TO.P,D9,2,A_2*%
%TO.N,Net-(D9-A)*%
X60000000Y-127500000D03*
D14*
%TO.P,D9,1,K_1*%
%TO.N,Net-(D10-K)*%
X52380000Y-127500000D03*
%TD*%
D15*
%TO.P,U2,14,5V_14*%
%TO.N,unconnected-(U2-5V-Pad14)*%
X103625000Y-130000000D03*
%TO.P,U2,13,GND_13*%
%TO.N,Net-(J1-Pin_1)*%
X103625000Y-127460000D03*
%TO.P,U2,12,3V3_12*%
%TO.N,Net-(J1-Pin_2)*%
X103625000Y-124920000D03*
%TO.P,U2,11,PA6_A10_D10_MOSI_11*%
%TO.N,Net-(U2-PA6_A10_D10_MOSI)*%
X103625000Y-122380000D03*
D16*
%TO.P,U2,10,PA5_A9_D9_MISO_10*%
%TO.N,Net-(U2-PA5_A9_D9_MISO)*%
X103625000Y-119840000D03*
%TO.P,U2,9,PA7_A8_D8_SCK_9*%
%TO.N,Net-(U2-PA7_A8_D8_SCK)*%
X103625000Y-117300000D03*
%TO.P,U2,8,PB09_A7_D7_RX_8*%
%TO.N,Net-(U2-PB09_A7_D7_RX)*%
X103625000Y-114760000D03*
%TO.P,U2,7,PB08_A6_D6_TX_7*%
%TO.N,Net-(U2-PB08_A6_D6_TX)*%
X86375000Y-114760000D03*
%TO.P,U2,6,PA9_A5_D5_SCL_6*%
%TO.N,Net-(J1-Pin_3)*%
X86375000Y-117300000D03*
%TO.P,U2,5,PA8_A4_D4_SDA_5*%
%TO.N,Net-(J1-Pin_4)*%
X86375000Y-119840000D03*
%TO.P,U2,4,PA11_A3_D3_4*%
%TO.N,Net-(U2-PA11_A3_D3)*%
X86375000Y-122380000D03*
%TO.P,U2,3,PA10_A2_D2_3*%
%TO.N,Net-(D10-K)*%
X86375000Y-124920000D03*
%TO.P,U2,2,PA4_A1_D1_2*%
%TO.N,Net-(D5-K)*%
X86375000Y-127460000D03*
D17*
%TO.P,U2,1,PA02_A0_D0_1*%
%TO.N,Net-(D1-K)*%
X86375000Y-130000000D03*
%TD*%
D18*
%TO.P,SW17,A,A_A*%
%TO.N,Net-(U2-PA7_A8_D8_SCK)*%
X108750000Y-111000000D03*
D19*
%TO.P,SW17,B,B_B*%
%TO.N,Net-(U2-PA5_A9_D9_MISO)*%
X108750000Y-116000000D03*
%TO.P,SW17,C,C_C*%
%TO.N,Net-(J1-Pin_1)*%
X108750000Y-113500000D03*
D20*
%TO.P,SW17,MP*%
%TO.N,N/C*%
X116250000Y-107900000D03*
X116250000Y-119100000D03*
D19*
%TO.P,SW17,S1,S1_S1*%
%TO.N,Net-(U2-PA6_A10_D10_MOSI)*%
X123250000Y-116000000D03*
%TO.P,SW17,S2,S2_S2*%
%TO.N,Net-(D12-A)*%
X123250000Y-111000000D03*
%TD*%
D12*
%TO.P,SW12,1,1_1*%
%TO.N,Net-(U2-PA6_A10_D10_MOSI)*%
X116840000Y-39820000D03*
%TO.P,SW12,2,2_2*%
%TO.N,Net-(D4-A)*%
X110490000Y-42360000D03*
%TD*%
%TO.P,SW11,1,1_1*%
%TO.N,Net-(U2-PA6_A10_D10_MOSI)*%
X116840000Y-71120000D03*
%TO.P,SW11,2,2_2*%
%TO.N,Net-(D8-A)*%
X110490000Y-73660000D03*
%TD*%
%TO.P,SW10,1,1_1*%
%TO.N,Net-(U2-PB09_A7_D7_RX)*%
X97790000Y-71120000D03*
%TO.P,SW10,2,2_2*%
%TO.N,Net-(D7-A)*%
X91440000Y-73660000D03*
%TD*%
%TO.P,SW8,1,1_1*%
%TO.N,Net-(U2-PB09_A7_D7_RX)*%
X97790000Y-109220000D03*
%TO.P,SW8,2,2_2*%
%TO.N,Net-(D11-A)*%
X91440000Y-111760000D03*
%TD*%
%TO.P,SW7,1,1_1*%
%TO.N,Net-(U2-PB08_A6_D6_TX)*%
X78740000Y-109220000D03*
%TO.P,SW7,2,2_2*%
%TO.N,Net-(D10-A)*%
X72390000Y-111760000D03*
%TD*%
%TO.P,SW5,1,1_1*%
%TO.N,Net-(U2-PB08_A6_D6_TX)*%
X78740000Y-71120000D03*
%TO.P,SW5,2,2_2*%
%TO.N,Net-(D6-A)*%
X72390000Y-73660000D03*
%TD*%
%TO.P,SW4,1,1_1*%
%TO.N,Net-(U2-PA11_A3_D3)*%
X59690000Y-71120000D03*
%TO.P,SW4,2,2_2*%
%TO.N,Net-(D5-A)*%
X53340000Y-73660000D03*
%TD*%
%TO.P,SW3,1,1_1*%
%TO.N,Net-(U2-PB09_A7_D7_RX)*%
X97790000Y-39820000D03*
%TO.P,SW3,2,2_2*%
%TO.N,Net-(D3-A)*%
X91440000Y-42360000D03*
%TD*%
%TO.P,SW2,1,1_1*%
%TO.N,Net-(U2-PB08_A6_D6_TX)*%
X78740000Y-39820000D03*
%TO.P,SW2,2,2_2*%
%TO.N,Net-(D2-A)*%
X72390000Y-42360000D03*
%TD*%
%TO.P,SW1,1,1_1*%
%TO.N,Net-(U2-PA11_A3_D3)*%
X59690000Y-39820000D03*
%TO.P,SW1,2,2_2*%
%TO.N,Net-(D1-A)*%
X53340000Y-42360000D03*
%TD*%
D14*
%TO.P,D12,1,K_1*%
%TO.N,Net-(D10-K)*%
X113690000Y-124400000D03*
D13*
%TO.P,D12,2,A_2*%
%TO.N,Net-(D12-A)*%
X121310000Y-124400000D03*
%TD*%
D14*
%TO.P,D11,1,K_1*%
%TO.N,Net-(D10-K)*%
X91190000Y-127500000D03*
D13*
%TO.P,D11,2,A_2*%
%TO.N,Net-(D11-A)*%
X98810000Y-127500000D03*
%TD*%
D14*
%TO.P,D10,1,K_1*%
%TO.N,Net-(D10-K)*%
X73690000Y-127500000D03*
D13*
%TO.P,D10,2,A_2*%
%TO.N,Net-(D10-A)*%
X81310000Y-127500000D03*
%TD*%
D21*
%TO.N,Net-(D5-K)*%
X82500000Y-124500000D03*
%TO.N,Net-(U2-PA5_A9_D9_MISO)*%
X107500000Y-119000000D03*
%TO.N,Net-(J1-Pin_1)*%
X106500000Y-121590000D03*
X122500000Y-108000000D03*
%TO.N,Net-(J1-Pin_4)*%
X89643783Y-128010000D03*
X89500000Y-130000000D03*
%TO.N,Net-(J1-Pin_3)*%
X92040000Y-118000000D03*
X93500000Y-118000000D03*
X125500000Y-113500000D03*
%TO.N,Net-(D1-K)*%
X94000000Y-70500000D03*
%TO.N,Net-(U2-PB08_A6_D6_TX)*%
X78500000Y-87500000D03*
%TO.N,Net-(U2-PB09_A7_D7_RX)*%
X98000000Y-84000000D03*
%TO.N,Net-(U2-PA6_A10_D10_MOSI)*%
X117000000Y-64000000D03*
X117000000Y-53000000D03*
%TO.N,Net-(U2-PB09_A7_D7_RX)*%
X97500000Y-66000000D03*
X97500000Y-52500000D03*
%TO.N,Net-(U2-PB08_A6_D6_TX)*%
X79000000Y-61500000D03*
X79000000Y-54500000D03*
%TO.N,Net-(U2-PA11_A3_D3)*%
X59500000Y-65500000D03*
X60000000Y-53500000D03*
X59500000Y-88000000D03*
X59500000Y-94000000D03*
%TD*%
%TO.N,Net-(D5-K)*%
D22*
X82500000Y-109000000D02*
X91190000Y-100310000D01*
X91190000Y-100310000D02*
X91190000Y-90000000D01*
X82500000Y-124500000D02*
X82500000Y-109000000D01*
%TO.N,Net-(U2-PA5_A9_D9_MISO)*%
X107500000Y-119000000D02*
X103465000Y-119000000D01*
X103465000Y-119000000D02*
X102625000Y-119840000D01*
%TO.N,Net-(J1-Pin_1)*%
X103711346Y-127460000D02*
X102625000Y-127460000D01*
X106500000Y-121590000D02*
X106500000Y-124671346D01*
X106500000Y-124671346D02*
X103711346Y-127460000D01*
X112650000Y-108000000D02*
X108750000Y-111900000D01*
X122500000Y-108000000D02*
X112650000Y-108000000D01*
%TO.N,Net-(J1-Pin_4)*%
X89500000Y-130000000D02*
X89500000Y-128153783D01*
X89500000Y-128153783D02*
X89643783Y-128010000D01*
%TO.N,Net-(J1-Pin_3)*%
X88075000Y-118000000D02*
X87375000Y-117300000D01*
X92040000Y-118000000D02*
X88075000Y-118000000D01*
X96490000Y-120990000D02*
X93500000Y-118000000D01*
X125500000Y-113500000D02*
X125500000Y-113988478D01*
X125500000Y-113988478D02*
X118498478Y-120990000D01*
X118498478Y-120990000D02*
X96490000Y-120990000D01*
%TO.N,Net-(D1-K)*%
X92900000Y-71600000D02*
X92900000Y-123905256D01*
X94000000Y-70500000D02*
X92900000Y-71600000D01*
X92900000Y-123905256D02*
X87375000Y-129430256D01*
X87375000Y-129430256D02*
X87375000Y-130000000D01*
%TO.N,Net-(U2-PB08_A6_D6_TX)*%
X77710000Y-108190000D02*
X78740000Y-109220000D01*
X77710000Y-88290000D02*
X77710000Y-108190000D01*
X78500000Y-87500000D02*
X77710000Y-88290000D01*
%TO.N,Net-(U2-PB09_A7_D7_RX)*%
X98000000Y-84000000D02*
X97710000Y-84290000D01*
X97710000Y-84290000D02*
X97710000Y-109140000D01*
X97710000Y-109140000D02*
X97790000Y-109220000D01*
%TO.N,Net-(U2-PA6_A10_D10_MOSI)*%
X117000000Y-53000000D02*
X117000000Y-64000000D01*
%TO.N,Net-(U2-PB09_A7_D7_RX)*%
X97500000Y-52500000D02*
X97500000Y-66000000D01*
%TO.N,Net-(U2-PB08_A6_D6_TX)*%
X79000000Y-54500000D02*
X79000000Y-61500000D01*
%TO.N,Net-(U2-PA11_A3_D3)*%
X59500000Y-54000000D02*
X59500000Y-65500000D01*
X60000000Y-53500000D02*
X59500000Y-54000000D01*
X59500000Y-88000000D02*
X59500000Y-94000000D01*
%TD*%
M02*
